M48
METRIC,LZ,000.000
;FILE_FORMAT=3:3
;TYPE=PLATED
;Layer: PTH_Through
;EasyEDA v6.5.29, 2023-07-31 08:11:24
;1ebaea4ae95649dd8011ffabadda3e85,10
;Gerber Generator version 0.2
;Holesize 1 = 0.915 mm
T01C0.915
;Holesize 2 = 1.400 mm
T02C1.400
%
G05
G90
T01
X026670Y-034290
X026670Y-031750
X026670Y-029210
X026670Y-026670
T02
X002540Y-002540
X002540Y-005080
X002540Y-007620
X002540Y-010160
X002540Y-012700
X002540Y-015240
X002540Y-017780
X002540Y-020320
X002540Y-022860
X002540Y-025400
X002540Y-027940
X002540Y-030480
X002540Y-033020
X002540Y-035560
X017780Y-035560
X017780Y-033020
X017780Y-030480
X017780Y-027940
X017780Y-025400
X017780Y-022860
X017780Y-020320
X017780Y-017780
X017780Y-015240
X017780Y-012700
X017780Y-010160
X017780Y-007620
X017780Y-005080
X017780Y-002540
X006350Y-007620
X006350Y-010160
X006350Y-012700
X006350Y-015240
X006350Y-017780
X006350Y-020320
X006350Y-022860
X006350Y-025400
X006350Y-027940
X006350Y-030480
X006350Y-033020
X006350Y-035560
X021590Y-035560
X021590Y-033020
X021590Y-030480
X021590Y-027940
X021590Y-025400
X021590Y-022860
X021590Y-020320
X021590Y-017780
X021590Y-015240
X021590Y-012700
X021590Y-010160
X021590Y-007620
M30
