G04 Layer: TopSilkscreenLayer*
G04 EasyEDA v6.5.29, 2023-07-31 08:11:24*
G04 1ebaea4ae95649dd8011ffabadda3e85,10*
G04 Gerber Generator version 0.2*
G04 Scale: 100 percent, Rotated: No, Reflected: No *
G04 Dimensions in millimeters *
G04 leading zeros omitted , absolute positions ,4 integer and 5 decimal *
%FSLAX45Y45*%
%MOMM*%

%ADD10C,0.1524*%
%ADD11C,0.1300*%
%ADD12C,0.2032*%
%ADD13C,0.2000*%
%ADD14C,0.2540*%
%ADD15C,0.2030*%
%ADD16C,0.2286*%
%ADD17C,0.0184*%

%LPD*%
D10*
X2525268Y-2421128D02*
G01*
X2520695Y-2421128D01*
X2511806Y-2416555D01*
X2507234Y-2411984D01*
X2502661Y-2403094D01*
X2502661Y-2384805D01*
X2507234Y-2375662D01*
X2511806Y-2371089D01*
X2520695Y-2366518D01*
X2529840Y-2366518D01*
X2538984Y-2371089D01*
X2552700Y-2380234D01*
X2598165Y-2425700D01*
X2598165Y-2361945D01*
X2502661Y-2277618D02*
G01*
X2502661Y-2323084D01*
X2543556Y-2327402D01*
X2538984Y-2323084D01*
X2534411Y-2309368D01*
X2534411Y-2295652D01*
X2538984Y-2282189D01*
X2548127Y-2273045D01*
X2561590Y-2268473D01*
X2570734Y-2268473D01*
X2584450Y-2273045D01*
X2593593Y-2282189D01*
X2598165Y-2295652D01*
X2598165Y-2309368D01*
X2593593Y-2323084D01*
X2589022Y-2327402D01*
X2579877Y-2331973D01*
X2516124Y-2183892D02*
G01*
X2507234Y-2188463D01*
X2502661Y-2202179D01*
X2502661Y-2211070D01*
X2507234Y-2224786D01*
X2520695Y-2233929D01*
X2543556Y-2238502D01*
X2566161Y-2238502D01*
X2584450Y-2233929D01*
X2593593Y-2224786D01*
X2598165Y-2211070D01*
X2598165Y-2206497D01*
X2593593Y-2193036D01*
X2584450Y-2183892D01*
X2570734Y-2179320D01*
X2566161Y-2179320D01*
X2552700Y-2183892D01*
X2543556Y-2193036D01*
X2538984Y-2206497D01*
X2538984Y-2211070D01*
X2543556Y-2224786D01*
X2552700Y-2233929D01*
X2566161Y-2238502D01*
X2543556Y-2144776D02*
G01*
X2548127Y-2149347D01*
X2552700Y-2144776D01*
X2548127Y-2140204D01*
X2543556Y-2144776D01*
X2575306Y-2144776D02*
G01*
X2579877Y-2149347D01*
X2584450Y-2144776D01*
X2579877Y-2140204D01*
X2575306Y-2144776D01*
X2534411Y-2040128D02*
G01*
X2629915Y-2040128D01*
X2548127Y-2040128D02*
G01*
X2538984Y-2031237D01*
X2534411Y-2022094D01*
X2534411Y-2008378D01*
X2538984Y-1999234D01*
X2548127Y-1990344D01*
X2561590Y-1985771D01*
X2570734Y-1985771D01*
X2584450Y-1990344D01*
X2593593Y-1999234D01*
X2598165Y-2008378D01*
X2598165Y-2022094D01*
X2593593Y-2031237D01*
X2584450Y-2040128D01*
X2525268Y-1951228D02*
G01*
X2520695Y-1951228D01*
X2511806Y-1946655D01*
X2507234Y-1942084D01*
X2502661Y-1932939D01*
X2502661Y-1914905D01*
X2507234Y-1905762D01*
X2511806Y-1901189D01*
X2520695Y-1896618D01*
X2529840Y-1896618D01*
X2538984Y-1901189D01*
X2552700Y-1910334D01*
X2598165Y-1955800D01*
X2598165Y-1892045D01*
X2502661Y-1798320D02*
G01*
X2598165Y-1843786D01*
X2502661Y-1862073D02*
G01*
X2502661Y-1798320D01*
X2543556Y-1768347D02*
G01*
X2543556Y-1686560D01*
X2570734Y-1768347D02*
G01*
X2570734Y-1686560D01*
X2502661Y-1620265D02*
G01*
X2598165Y-1656587D01*
X2502661Y-1620265D02*
G01*
X2598165Y-1583944D01*
X2566161Y-1642871D02*
G01*
X2566161Y-1597405D01*
X2520695Y-1553971D02*
G01*
X2516124Y-1544828D01*
X2502661Y-1531112D01*
X2598165Y-1531112D01*
X2502661Y-1455673D02*
G01*
X2566161Y-1501139D01*
X2566161Y-1433068D01*
X2502661Y-1455673D02*
G01*
X2598165Y-1455673D01*
X2342641Y-2996184D02*
G01*
X2326893Y-3001263D01*
X2316479Y-3017012D01*
X2311400Y-3042920D01*
X2311400Y-3058413D01*
X2316479Y-3084576D01*
X2326893Y-3100070D01*
X2342641Y-3105150D01*
X2353056Y-3105150D01*
X2368550Y-3100070D01*
X2378963Y-3084576D01*
X2384043Y-3058413D01*
X2384043Y-3042920D01*
X2378963Y-3017012D01*
X2368550Y-3001263D01*
X2353056Y-2996184D01*
X2342641Y-2996184D01*
X2324100Y-2788412D02*
G01*
X2334513Y-2783078D01*
X2350008Y-2767584D01*
X2350008Y-2876550D01*
X2874009Y-3386328D02*
G01*
X2844800Y-3462781D01*
X2874009Y-3386328D02*
G01*
X2902965Y-3462781D01*
X2855722Y-3437381D02*
G01*
X2892043Y-3437381D01*
X2927095Y-3400805D02*
G01*
X2934208Y-3397250D01*
X2945129Y-3386328D01*
X2945129Y-3462781D01*
X2976372Y-3386328D02*
G01*
X3016504Y-3386328D01*
X2994659Y-3415537D01*
X3005581Y-3415537D01*
X3012693Y-3419094D01*
X3016504Y-3422650D01*
X3020059Y-3433571D01*
X3020059Y-3440937D01*
X3016504Y-3451860D01*
X3009138Y-3459226D01*
X2998215Y-3462781D01*
X2987293Y-3462781D01*
X2976372Y-3459226D01*
X2972815Y-3455415D01*
X2969259Y-3448304D01*
D11*
X63500Y-3767328D02*
G01*
X85344Y-3818381D01*
X107187Y-3767328D02*
G01*
X85344Y-3818381D01*
X131063Y-3756405D02*
G01*
X138429Y-3752850D01*
X149352Y-3741928D01*
X149352Y-3818381D01*
X177037Y-3800094D02*
G01*
X173228Y-3803904D01*
X177037Y-3807460D01*
X180594Y-3803904D01*
X177037Y-3800094D01*
X226313Y-3741928D02*
G01*
X215392Y-3745484D01*
X208279Y-3756405D01*
X204470Y-3774694D01*
X204470Y-3785615D01*
X208279Y-3803904D01*
X215392Y-3814826D01*
X226313Y-3818381D01*
X233679Y-3818381D01*
X244602Y-3814826D01*
X251968Y-3803904D01*
X255523Y-3785615D01*
X255523Y-3774694D01*
X251968Y-3756405D01*
X244602Y-3745484D01*
X233679Y-3741928D01*
X226313Y-3741928D01*
X360934Y-3741928D02*
G01*
X360934Y-3818381D01*
X335534Y-3741928D02*
G01*
X386334Y-3741928D01*
X410463Y-3741928D02*
G01*
X410463Y-3818381D01*
X410463Y-3741928D02*
G01*
X443229Y-3741928D01*
X454152Y-3745484D01*
X457707Y-3749294D01*
X461263Y-3756405D01*
X461263Y-3763771D01*
X457707Y-3771137D01*
X454152Y-3774694D01*
X443229Y-3778250D01*
X410463Y-3778250D01*
X435863Y-3778250D02*
G01*
X461263Y-3818381D01*
X536194Y-3752850D02*
G01*
X528828Y-3745484D01*
X518160Y-3741928D01*
X503428Y-3741928D01*
X492505Y-3745484D01*
X485394Y-3752850D01*
X485394Y-3760215D01*
X488950Y-3767328D01*
X492505Y-3771137D01*
X499871Y-3774694D01*
X521715Y-3782060D01*
X528828Y-3785615D01*
X532637Y-3789171D01*
X536194Y-3796537D01*
X536194Y-3807460D01*
X528828Y-3814826D01*
X518160Y-3818381D01*
X503428Y-3818381D01*
X492505Y-3814826D01*
X485394Y-3807460D01*
X560323Y-3785615D02*
G01*
X625602Y-3785615D01*
X667765Y-3741928D02*
G01*
X656844Y-3745484D01*
X653287Y-3752850D01*
X653287Y-3760215D01*
X656844Y-3767328D01*
X664210Y-3771137D01*
X678687Y-3774694D01*
X689610Y-3778250D01*
X696976Y-3785615D01*
X700531Y-3792981D01*
X700531Y-3803904D01*
X696976Y-3811015D01*
X693420Y-3814826D01*
X682497Y-3818381D01*
X667765Y-3818381D01*
X656844Y-3814826D01*
X653287Y-3811015D01*
X649731Y-3803904D01*
X649731Y-3792981D01*
X653287Y-3785615D01*
X660654Y-3778250D01*
X671576Y-3774694D01*
X686054Y-3771137D01*
X693420Y-3767328D01*
X696976Y-3760215D01*
X696976Y-3752850D01*
X693420Y-3745484D01*
X682497Y-3741928D01*
X667765Y-3741928D01*
X746505Y-3741928D02*
G01*
X735584Y-3745484D01*
X728218Y-3756405D01*
X724662Y-3774694D01*
X724662Y-3785615D01*
X728218Y-3803904D01*
X735584Y-3814826D01*
X746505Y-3818381D01*
X753618Y-3818381D01*
X764539Y-3814826D01*
X771905Y-3803904D01*
X775462Y-3785615D01*
X775462Y-3774694D01*
X771905Y-3756405D01*
X764539Y-3745484D01*
X753618Y-3741928D01*
X746505Y-3741928D01*
X855471Y-3741928D02*
G01*
X855471Y-3818381D01*
X855471Y-3741928D02*
G01*
X884681Y-3818381D01*
X913637Y-3741928D02*
G01*
X884681Y-3818381D01*
X913637Y-3741928D02*
G01*
X913637Y-3818381D01*
X937768Y-3756405D02*
G01*
X944879Y-3752850D01*
X955802Y-3741928D01*
X955802Y-3818381D01*
X1035812Y-3741928D02*
G01*
X1035812Y-3818381D01*
X1035812Y-3741928D02*
G01*
X1083055Y-3741928D01*
X1035812Y-3778250D02*
G01*
X1065021Y-3778250D01*
X1035812Y-3818381D02*
G01*
X1083055Y-3818381D01*
X1107186Y-3741928D02*
G01*
X1107186Y-3818381D01*
X1107186Y-3741928D02*
G01*
X1154429Y-3741928D01*
X1107186Y-3778250D02*
G01*
X1136142Y-3778250D01*
X1107186Y-3818381D02*
G01*
X1154429Y-3818381D01*
X1178305Y-3741928D02*
G01*
X1178305Y-3818381D01*
X1178305Y-3741928D02*
G01*
X1211071Y-3741928D01*
X1221994Y-3745484D01*
X1225804Y-3749294D01*
X1229360Y-3756405D01*
X1229360Y-3767328D01*
X1225804Y-3774694D01*
X1221994Y-3778250D01*
X1211071Y-3782060D01*
X1178305Y-3782060D01*
X1253236Y-3741928D02*
G01*
X1253236Y-3818381D01*
X1253236Y-3741928D02*
G01*
X1286002Y-3741928D01*
X1296923Y-3745484D01*
X1300479Y-3749294D01*
X1304289Y-3756405D01*
X1304289Y-3763771D01*
X1300479Y-3771137D01*
X1296923Y-3774694D01*
X1286002Y-3778250D01*
X1253236Y-3778250D01*
X1278889Y-3778250D02*
G01*
X1304289Y-3818381D01*
X1350010Y-3741928D02*
G01*
X1342644Y-3745484D01*
X1335531Y-3752850D01*
X1331976Y-3760215D01*
X1328165Y-3771137D01*
X1328165Y-3789171D01*
X1331976Y-3800094D01*
X1335531Y-3807460D01*
X1342644Y-3814826D01*
X1350010Y-3818381D01*
X1364487Y-3818381D01*
X1371854Y-3814826D01*
X1379220Y-3807460D01*
X1382776Y-3800094D01*
X1386331Y-3789171D01*
X1386331Y-3771137D01*
X1382776Y-3760215D01*
X1379220Y-3752850D01*
X1371854Y-3745484D01*
X1364487Y-3741928D01*
X1350010Y-3741928D01*
X1410462Y-3741928D02*
G01*
X1410462Y-3818381D01*
X1410462Y-3741928D02*
G01*
X1439418Y-3818381D01*
X1468628Y-3741928D02*
G01*
X1439418Y-3818381D01*
X1468628Y-3741928D02*
G01*
X1468628Y-3818381D01*
X1592326Y-3767328D02*
G01*
X1592326Y-3818381D01*
X1592326Y-3778250D02*
G01*
X1584960Y-3771137D01*
X1577594Y-3767328D01*
X1566671Y-3767328D01*
X1559560Y-3771137D01*
X1552194Y-3778250D01*
X1548637Y-3789171D01*
X1548637Y-3796537D01*
X1552194Y-3807460D01*
X1559560Y-3814826D01*
X1566671Y-3818381D01*
X1577594Y-3818381D01*
X1584960Y-3814826D01*
X1592326Y-3807460D01*
X1659889Y-3741928D02*
G01*
X1659889Y-3818381D01*
X1659889Y-3778250D02*
G01*
X1652523Y-3771137D01*
X1645412Y-3767328D01*
X1634489Y-3767328D01*
X1627123Y-3771137D01*
X1619757Y-3778250D01*
X1616202Y-3789171D01*
X1616202Y-3796537D01*
X1619757Y-3807460D01*
X1627123Y-3814826D01*
X1634489Y-3818381D01*
X1645412Y-3818381D01*
X1652523Y-3814826D01*
X1659889Y-3807460D01*
X1727454Y-3767328D02*
G01*
X1727454Y-3818381D01*
X1727454Y-3778250D02*
G01*
X1720342Y-3771137D01*
X1712976Y-3767328D01*
X1702054Y-3767328D01*
X1694687Y-3771137D01*
X1687576Y-3778250D01*
X1683765Y-3789171D01*
X1683765Y-3796537D01*
X1687576Y-3807460D01*
X1694687Y-3814826D01*
X1702054Y-3818381D01*
X1712976Y-3818381D01*
X1720342Y-3814826D01*
X1727454Y-3807460D01*
X1751584Y-3767328D02*
G01*
X1751584Y-3843781D01*
X1751584Y-3778250D02*
G01*
X1758695Y-3771137D01*
X1766062Y-3767328D01*
X1776984Y-3767328D01*
X1784350Y-3771137D01*
X1791462Y-3778250D01*
X1795018Y-3789171D01*
X1795018Y-3796537D01*
X1791462Y-3807460D01*
X1784350Y-3814826D01*
X1776984Y-3818381D01*
X1766062Y-3818381D01*
X1758695Y-3814826D01*
X1751584Y-3807460D01*
X1830070Y-3741928D02*
G01*
X1830070Y-3803904D01*
X1833626Y-3814826D01*
X1840992Y-3818381D01*
X1848104Y-3818381D01*
X1819147Y-3767328D02*
G01*
X1844547Y-3767328D01*
X1872234Y-3789171D02*
G01*
X1915921Y-3789171D01*
X1915921Y-3782060D01*
X1912112Y-3774694D01*
X1908555Y-3771137D01*
X1901189Y-3767328D01*
X1890521Y-3767328D01*
X1883155Y-3771137D01*
X1875789Y-3778250D01*
X1872234Y-3789171D01*
X1872234Y-3796537D01*
X1875789Y-3807460D01*
X1883155Y-3814826D01*
X1890521Y-3818381D01*
X1901189Y-3818381D01*
X1908555Y-3814826D01*
X1915921Y-3807460D01*
X1939797Y-3767328D02*
G01*
X1939797Y-3818381D01*
X1939797Y-3789171D02*
G01*
X1943608Y-3778250D01*
X1950720Y-3771137D01*
X1958086Y-3767328D01*
X1969008Y-3767328D01*
X2049018Y-3785615D02*
G01*
X2114295Y-3785615D01*
X2194306Y-3741928D02*
G01*
X2194306Y-3818381D01*
X2194306Y-3741928D02*
G01*
X2219959Y-3741928D01*
X2230881Y-3745484D01*
X2237993Y-3752850D01*
X2241804Y-3760215D01*
X2245359Y-3771137D01*
X2245359Y-3789171D01*
X2241804Y-3800094D01*
X2237993Y-3807460D01*
X2230881Y-3814826D01*
X2219959Y-3818381D01*
X2194306Y-3818381D01*
X2273045Y-3800094D02*
G01*
X2269236Y-3803904D01*
X2273045Y-3807460D01*
X2276602Y-3803904D01*
X2273045Y-3800094D01*
X2356611Y-3741928D02*
G01*
X2356611Y-3818381D01*
X2356611Y-3741928D02*
G01*
X2389377Y-3741928D01*
X2400300Y-3745484D01*
X2403856Y-3749294D01*
X2407411Y-3756405D01*
X2407411Y-3763771D01*
X2403856Y-3771137D01*
X2400300Y-3774694D01*
X2389377Y-3778250D01*
X2356611Y-3778250D02*
G01*
X2389377Y-3778250D01*
X2400300Y-3782060D01*
X2403856Y-3785615D01*
X2407411Y-3792981D01*
X2407411Y-3803904D01*
X2403856Y-3811015D01*
X2400300Y-3814826D01*
X2389377Y-3818381D01*
X2356611Y-3818381D01*
X2431541Y-3741928D02*
G01*
X2431541Y-3818381D01*
X2473706Y-3767328D02*
G01*
X2466340Y-3771137D01*
X2459227Y-3778250D01*
X2455418Y-3789171D01*
X2455418Y-3796537D01*
X2459227Y-3807460D01*
X2466340Y-3814826D01*
X2473706Y-3818381D01*
X2484627Y-3818381D01*
X2491740Y-3814826D01*
X2499106Y-3807460D01*
X2502661Y-3796537D01*
X2502661Y-3789171D01*
X2499106Y-3778250D01*
X2491740Y-3771137D01*
X2484627Y-3767328D01*
X2473706Y-3767328D01*
X2526791Y-3789171D02*
G01*
X2570479Y-3789171D01*
X2570479Y-3782060D01*
X2566670Y-3774694D01*
X2563113Y-3771137D01*
X2555747Y-3767328D01*
X2544825Y-3767328D01*
X2537713Y-3771137D01*
X2530347Y-3778250D01*
X2526791Y-3789171D01*
X2526791Y-3796537D01*
X2530347Y-3807460D01*
X2537713Y-3814826D01*
X2544825Y-3818381D01*
X2555747Y-3818381D01*
X2563113Y-3814826D01*
X2570479Y-3807460D01*
X2594356Y-3767328D02*
G01*
X2594356Y-3818381D01*
X2594356Y-3782060D02*
G01*
X2605277Y-3771137D01*
X2612643Y-3767328D01*
X2623565Y-3767328D01*
X2630677Y-3771137D01*
X2634488Y-3782060D01*
X2634488Y-3818381D01*
X2634488Y-3782060D02*
G01*
X2645409Y-3771137D01*
X2652522Y-3767328D01*
X2663443Y-3767328D01*
X2670809Y-3771137D01*
X2674365Y-3782060D01*
X2674365Y-3818381D01*
X2698495Y-3789171D02*
G01*
X2741929Y-3789171D01*
X2741929Y-3782060D01*
X2738374Y-3774694D01*
X2734818Y-3771137D01*
X2727452Y-3767328D01*
X2716529Y-3767328D01*
X2709418Y-3771137D01*
X2702052Y-3778250D01*
X2698495Y-3789171D01*
X2698495Y-3796537D01*
X2702052Y-3807460D01*
X2709418Y-3814826D01*
X2716529Y-3818381D01*
X2727452Y-3818381D01*
X2734818Y-3814826D01*
X2741929Y-3807460D01*
X2766059Y-3767328D02*
G01*
X2766059Y-3818381D01*
X2766059Y-3782060D02*
G01*
X2776981Y-3771137D01*
X2784347Y-3767328D01*
X2795015Y-3767328D01*
X2802381Y-3771137D01*
X2805938Y-3782060D01*
X2805938Y-3818381D01*
X2873756Y-3741928D02*
G01*
X2873756Y-3818381D01*
X2873756Y-3778250D02*
G01*
X2866390Y-3771137D01*
X2859024Y-3767328D01*
X2848102Y-3767328D01*
X2840990Y-3771137D01*
X2833624Y-3778250D01*
X2830068Y-3789171D01*
X2830068Y-3796537D01*
X2833624Y-3807460D01*
X2840990Y-3814826D01*
X2848102Y-3818381D01*
X2859024Y-3818381D01*
X2866390Y-3814826D01*
X2873756Y-3807460D01*
X2941320Y-3767328D02*
G01*
X2941320Y-3818381D01*
X2941320Y-3778250D02*
G01*
X2933954Y-3771137D01*
X2926841Y-3767328D01*
X2915920Y-3767328D01*
X2908554Y-3771137D01*
X2901188Y-3778250D01*
X2897631Y-3789171D01*
X2897631Y-3796537D01*
X2901188Y-3807460D01*
X2908554Y-3814826D01*
X2915920Y-3818381D01*
X2926841Y-3818381D01*
X2933954Y-3814826D01*
X2941320Y-3807460D01*
X3008884Y-3767328D02*
G01*
X3008884Y-3818381D01*
X3008884Y-3778250D02*
G01*
X3001772Y-3771137D01*
X2994406Y-3767328D01*
X2983484Y-3767328D01*
X2976118Y-3771137D01*
X2969006Y-3778250D01*
X2965195Y-3789171D01*
X2965195Y-3796537D01*
X2969006Y-3807460D01*
X2976118Y-3814826D01*
X2983484Y-3818381D01*
X2994406Y-3818381D01*
X3001772Y-3814826D01*
X3008884Y-3807460D01*
X3033013Y-3741928D02*
G01*
X3033013Y-3818381D01*
D10*
X2759456Y-3658615D02*
G01*
X2759456Y-3654805D01*
X2763265Y-3647694D01*
X2766822Y-3643884D01*
X2774188Y-3640328D01*
X2788665Y-3640328D01*
X2795777Y-3643884D01*
X2799588Y-3647694D01*
X2803143Y-3654805D01*
X2803143Y-3662171D01*
X2799588Y-3669537D01*
X2792222Y-3680460D01*
X2755900Y-3716781D01*
X2806700Y-3716781D01*
X2852674Y-3640328D02*
G01*
X2841752Y-3643884D01*
X2834386Y-3654805D01*
X2830829Y-3673094D01*
X2830829Y-3684015D01*
X2834386Y-3702304D01*
X2841752Y-3713226D01*
X2852674Y-3716781D01*
X2859786Y-3716781D01*
X2870708Y-3713226D01*
X2878074Y-3702304D01*
X2881629Y-3684015D01*
X2881629Y-3673094D01*
X2878074Y-3654805D01*
X2870708Y-3643884D01*
X2859786Y-3640328D01*
X2852674Y-3640328D01*
X2909315Y-3658615D02*
G01*
X2909315Y-3654805D01*
X2912872Y-3647694D01*
X2916681Y-3643884D01*
X2923793Y-3640328D01*
X2938525Y-3640328D01*
X2945638Y-3643884D01*
X2949447Y-3647694D01*
X2953004Y-3654805D01*
X2953004Y-3662171D01*
X2949447Y-3669537D01*
X2942081Y-3680460D01*
X2905759Y-3716781D01*
X2956559Y-3716781D01*
X2987802Y-3640328D02*
G01*
X3027934Y-3640328D01*
X3006090Y-3669537D01*
X3017011Y-3669537D01*
X3024377Y-3673094D01*
X3027934Y-3676650D01*
X3031490Y-3687571D01*
X3031490Y-3694937D01*
X3027934Y-3705860D01*
X3020568Y-3713226D01*
X3009645Y-3716781D01*
X2998724Y-3716781D01*
X2987802Y-3713226D01*
X2984245Y-3709415D01*
X2980690Y-3702304D01*
X2520695Y-1003300D02*
G01*
X2516124Y-994155D01*
X2502661Y-980694D01*
X2598165Y-980694D01*
X2525268Y-946150D02*
G01*
X2520695Y-946150D01*
X2511806Y-941578D01*
X2507234Y-937005D01*
X2502661Y-927862D01*
X2502661Y-909573D01*
X2507234Y-900684D01*
X2511806Y-896112D01*
X2520695Y-891539D01*
X2529840Y-891539D01*
X2538984Y-896112D01*
X2552700Y-905002D01*
X2598165Y-950468D01*
X2598165Y-886968D01*
X2502661Y-834136D02*
G01*
X2507234Y-847852D01*
X2516124Y-852423D01*
X2525268Y-852423D01*
X2534411Y-847852D01*
X2538984Y-838707D01*
X2543556Y-820673D01*
X2548127Y-806957D01*
X2557018Y-797813D01*
X2566161Y-793242D01*
X2579877Y-793242D01*
X2589022Y-797813D01*
X2593593Y-802386D01*
X2598165Y-816102D01*
X2598165Y-834136D01*
X2593593Y-847852D01*
X2589022Y-852423D01*
X2579877Y-856995D01*
X2566161Y-856995D01*
X2557018Y-852423D01*
X2548127Y-843279D01*
X2543556Y-829563D01*
X2538984Y-811529D01*
X2534411Y-802386D01*
X2525268Y-797813D01*
X2516124Y-797813D01*
X2507234Y-802386D01*
X2502661Y-816102D01*
X2502661Y-834136D01*
X2543556Y-758697D02*
G01*
X2548127Y-763270D01*
X2552700Y-758697D01*
X2548127Y-754126D01*
X2543556Y-758697D01*
X2575306Y-758697D02*
G01*
X2579877Y-763270D01*
X2584450Y-758697D01*
X2579877Y-754126D01*
X2575306Y-758697D01*
X2534411Y-654304D02*
G01*
X2629915Y-654304D01*
X2548127Y-654304D02*
G01*
X2538984Y-645160D01*
X2534411Y-636015D01*
X2534411Y-622300D01*
X2538984Y-613410D01*
X2548127Y-604265D01*
X2561590Y-599694D01*
X2570734Y-599694D01*
X2584450Y-604265D01*
X2593593Y-613410D01*
X2598165Y-622300D01*
X2598165Y-636015D01*
X2593593Y-645160D01*
X2584450Y-654304D01*
X2525268Y-565150D02*
G01*
X2520695Y-565150D01*
X2511806Y-560578D01*
X2507234Y-556005D01*
X2502661Y-546862D01*
X2502661Y-528828D01*
X2507234Y-519684D01*
X2511806Y-515112D01*
X2520695Y-510539D01*
X2529840Y-510539D01*
X2538984Y-515112D01*
X2552700Y-524255D01*
X2598165Y-569721D01*
X2598165Y-505968D01*
X2502661Y-412495D02*
G01*
X2598165Y-457962D01*
X2502661Y-475995D02*
G01*
X2502661Y-412495D01*
X2543556Y-382270D02*
G01*
X2543556Y-300481D01*
X2570734Y-382270D02*
G01*
X2570734Y-300481D01*
X2502661Y-270510D02*
G01*
X2598165Y-270510D01*
X2502661Y-270510D02*
G01*
X2502661Y-229615D01*
X2507234Y-216154D01*
X2511806Y-211581D01*
X2520695Y-207010D01*
X2534411Y-207010D01*
X2543556Y-211581D01*
X2548127Y-216154D01*
X2552700Y-229615D01*
X2552700Y-270510D01*
X2529840Y-154178D02*
G01*
X2584450Y-154178D01*
X2543556Y-177037D02*
G01*
X2570734Y-131571D01*
X2543556Y-131571D02*
G01*
X2570734Y-177037D01*
X2543556Y-97028D02*
G01*
X2548127Y-101600D01*
X2552700Y-97028D01*
X2548127Y-92455D01*
X2543556Y-97028D01*
X2575306Y-97028D02*
G01*
X2579877Y-101600D01*
X2584450Y-97028D01*
X2579877Y-92455D01*
X2575306Y-97028D01*
X2844800Y-2903728D02*
G01*
X2844800Y-2980181D01*
X2844800Y-2914650D02*
G01*
X2852165Y-2907537D01*
X2859277Y-2903728D01*
X2870200Y-2903728D01*
X2877565Y-2907537D01*
X2884677Y-2914650D01*
X2888488Y-2925571D01*
X2888488Y-2932937D01*
X2884677Y-2943860D01*
X2877565Y-2951226D01*
X2870200Y-2954781D01*
X2859277Y-2954781D01*
X2852165Y-2951226D01*
X2844800Y-2943860D01*
X2916174Y-2896615D02*
G01*
X2916174Y-2892805D01*
X2919729Y-2885694D01*
X2923286Y-2881884D01*
X2930652Y-2878328D01*
X2945129Y-2878328D01*
X2952495Y-2881884D01*
X2956052Y-2885694D01*
X2959608Y-2892805D01*
X2959608Y-2900171D01*
X2956052Y-2907537D01*
X2948686Y-2918460D01*
X2912363Y-2954781D01*
X2963418Y-2954781D01*
X3038347Y-2878328D02*
G01*
X3001772Y-2954781D01*
X2987293Y-2878328D02*
G01*
X3038347Y-2878328D01*
X2680461Y-2425700D02*
G01*
X2775965Y-2425700D01*
X2725927Y-2425700D02*
G01*
X2716784Y-2416555D01*
X2712211Y-2407412D01*
X2712211Y-2393950D01*
X2716784Y-2384805D01*
X2725927Y-2375662D01*
X2739390Y-2371089D01*
X2748534Y-2371089D01*
X2762250Y-2375662D01*
X2771393Y-2384805D01*
X2775965Y-2393950D01*
X2775965Y-2407412D01*
X2771393Y-2416555D01*
X2762250Y-2425700D01*
X2712211Y-2286507D02*
G01*
X2775965Y-2286507D01*
X2725927Y-2286507D02*
G01*
X2716784Y-2295652D01*
X2712211Y-2304795D01*
X2712211Y-2318512D01*
X2716784Y-2327402D01*
X2725927Y-2336545D01*
X2739390Y-2341118D01*
X2748534Y-2341118D01*
X2762250Y-2336545D01*
X2771393Y-2327402D01*
X2775965Y-2318512D01*
X2775965Y-2304795D01*
X2771393Y-2295652D01*
X2762250Y-2286507D01*
X2712211Y-2256536D02*
G01*
X2775965Y-2256536D01*
X2730500Y-2256536D02*
G01*
X2716784Y-2243073D01*
X2712211Y-2233929D01*
X2712211Y-2220213D01*
X2716784Y-2211070D01*
X2730500Y-2206497D01*
X2775965Y-2206497D01*
X2680461Y-2176526D02*
G01*
X2775965Y-2176526D01*
X2712211Y-2131060D02*
G01*
X2757677Y-2176526D01*
X2739390Y-2158492D02*
G01*
X2775965Y-2126487D01*
X2725927Y-1976628D02*
G01*
X2716784Y-1981200D01*
X2712211Y-1994915D01*
X2712211Y-2008378D01*
X2716784Y-2022094D01*
X2725927Y-2026665D01*
X2734818Y-2022094D01*
X2739390Y-2012950D01*
X2743961Y-1990344D01*
X2748534Y-1981200D01*
X2757677Y-1976628D01*
X2762250Y-1976628D01*
X2771393Y-1981200D01*
X2775965Y-1994915D01*
X2775965Y-2008378D01*
X2771393Y-2022094D01*
X2762250Y-2026665D01*
X2739390Y-1946655D02*
G01*
X2739390Y-1892045D01*
X2730500Y-1892045D01*
X2721356Y-1896618D01*
X2716784Y-1901189D01*
X2712211Y-1910334D01*
X2712211Y-1923795D01*
X2716784Y-1932939D01*
X2725927Y-1942084D01*
X2739390Y-1946655D01*
X2748534Y-1946655D01*
X2762250Y-1942084D01*
X2771393Y-1932939D01*
X2775965Y-1923795D01*
X2775965Y-1910334D01*
X2771393Y-1901189D01*
X2762250Y-1892045D01*
X2680461Y-1862073D02*
G01*
X2775965Y-1862073D01*
X2721356Y-1827529D02*
G01*
X2725927Y-1832102D01*
X2730500Y-1827529D01*
X2725927Y-1822957D01*
X2721356Y-1827529D01*
X2753106Y-1827529D02*
G01*
X2757677Y-1832102D01*
X2762250Y-1827529D01*
X2757677Y-1822957D01*
X2753106Y-1827529D01*
X2680461Y-1677415D02*
G01*
X2753106Y-1677415D01*
X2766822Y-1681987D01*
X2771393Y-1686560D01*
X2775965Y-1695704D01*
X2775965Y-1704847D01*
X2771393Y-1713992D01*
X2766822Y-1718310D01*
X2753106Y-1722881D01*
X2743961Y-1722881D01*
X2698495Y-1647444D02*
G01*
X2693924Y-1638554D01*
X2680461Y-1624837D01*
X2775965Y-1624837D01*
X2721356Y-1594865D02*
G01*
X2721356Y-1513078D01*
X2748534Y-1594865D02*
G01*
X2748534Y-1513078D01*
X2680461Y-1455673D02*
G01*
X2685034Y-1469389D01*
X2698495Y-1478534D01*
X2721356Y-1482852D01*
X2734818Y-1482852D01*
X2757677Y-1478534D01*
X2771393Y-1469389D01*
X2775965Y-1455673D01*
X2775965Y-1446529D01*
X2771393Y-1433068D01*
X2757677Y-1423923D01*
X2734818Y-1419352D01*
X2721356Y-1419352D01*
X2698495Y-1423923D01*
X2685034Y-1433068D01*
X2680461Y-1446529D01*
X2680461Y-1455673D01*
X2662174Y-1307592D02*
G01*
X2807715Y-1389379D01*
X2698495Y-1277620D02*
G01*
X2693924Y-1268476D01*
X2680461Y-1254760D01*
X2775965Y-1254760D01*
X2680461Y-699764D02*
G01*
X2753106Y-699764D01*
X2766822Y-704336D01*
X2771393Y-708908D01*
X2775965Y-718052D01*
X2775965Y-726942D01*
X2771393Y-736086D01*
X2766822Y-740658D01*
X2753106Y-745230D01*
X2743961Y-745230D01*
X2698495Y-669792D02*
G01*
X2693924Y-660648D01*
X2680461Y-646932D01*
X2775965Y-646932D01*
X2721356Y-616960D02*
G01*
X2721356Y-535172D01*
X2748534Y-616960D02*
G01*
X2748534Y-535172D01*
X2698495Y-505200D02*
G01*
X2693924Y-496056D01*
X2680461Y-482594D01*
X2775965Y-482594D01*
X2662174Y-350768D02*
G01*
X2671318Y-359658D01*
X2685034Y-368802D01*
X2703068Y-377946D01*
X2725927Y-382518D01*
X2743961Y-382518D01*
X2766822Y-377946D01*
X2784856Y-368802D01*
X2798572Y-359658D01*
X2807715Y-350768D01*
X2680461Y-266186D02*
G01*
X2680461Y-311652D01*
X2721356Y-316224D01*
X2716784Y-311652D01*
X2712211Y-297936D01*
X2712211Y-284220D01*
X2716784Y-270758D01*
X2725927Y-261614D01*
X2739390Y-257042D01*
X2748534Y-257042D01*
X2762250Y-261614D01*
X2771393Y-270758D01*
X2775965Y-284220D01*
X2775965Y-297936D01*
X2771393Y-311652D01*
X2766822Y-316224D01*
X2757677Y-320796D01*
X2680461Y-227070D02*
G01*
X2775965Y-190748D01*
X2680461Y-154426D02*
G01*
X2775965Y-190748D01*
X2662174Y-124200D02*
G01*
X2671318Y-115310D01*
X2685034Y-106166D01*
X2703068Y-97022D01*
X2725927Y-92450D01*
X2743961Y-92450D01*
X2766822Y-97022D01*
X2784856Y-106166D01*
X2798572Y-115310D01*
X2807715Y-124200D01*
X1026668Y-3538728D02*
G01*
X1017523Y-3543045D01*
X1008634Y-3552189D01*
X1004062Y-3561334D01*
X1004062Y-3579621D01*
X1008634Y-3588512D01*
X1017523Y-3597655D01*
X1026668Y-3602228D01*
X1040384Y-3606800D01*
X1062989Y-3606800D01*
X1076705Y-3602228D01*
X1085850Y-3597655D01*
X1094994Y-3588512D01*
X1099565Y-3579621D01*
X1099565Y-3561334D01*
X1094994Y-3552189D01*
X1085850Y-3543045D01*
X1076705Y-3538728D01*
X1035812Y-3485895D02*
G01*
X1040384Y-3495039D01*
X1049528Y-3504184D01*
X1062989Y-3508502D01*
X1072134Y-3508502D01*
X1085850Y-3504184D01*
X1094994Y-3495039D01*
X1099565Y-3485895D01*
X1099565Y-3472179D01*
X1094994Y-3463289D01*
X1085850Y-3454145D01*
X1072134Y-3449573D01*
X1062989Y-3449573D01*
X1049528Y-3454145D01*
X1040384Y-3463289D01*
X1035812Y-3472179D01*
X1035812Y-3485895D01*
X1035812Y-3419602D02*
G01*
X1099565Y-3419602D01*
X1054100Y-3419602D02*
G01*
X1040384Y-3405886D01*
X1035812Y-3396742D01*
X1035812Y-3383279D01*
X1040384Y-3374136D01*
X1054100Y-3369563D01*
X1099565Y-3369563D01*
X1035812Y-3339592D02*
G01*
X1099565Y-3339592D01*
X1054100Y-3339592D02*
G01*
X1040384Y-3325876D01*
X1035812Y-3316731D01*
X1035812Y-3303270D01*
X1040384Y-3294126D01*
X1054100Y-3289554D01*
X1099565Y-3289554D01*
X1062989Y-3259581D02*
G01*
X1062989Y-3204971D01*
X1054100Y-3204971D01*
X1044955Y-3209544D01*
X1040384Y-3214115D01*
X1035812Y-3223260D01*
X1035812Y-3236721D01*
X1040384Y-3245865D01*
X1049528Y-3255010D01*
X1062989Y-3259581D01*
X1072134Y-3259581D01*
X1085850Y-3255010D01*
X1094994Y-3245865D01*
X1099565Y-3236721D01*
X1099565Y-3223260D01*
X1094994Y-3214115D01*
X1085850Y-3204971D01*
X1049528Y-3120389D02*
G01*
X1040384Y-3129534D01*
X1035812Y-3138678D01*
X1035812Y-3152139D01*
X1040384Y-3161284D01*
X1049528Y-3170428D01*
X1062989Y-3175000D01*
X1072134Y-3175000D01*
X1085850Y-3170428D01*
X1094994Y-3161284D01*
X1099565Y-3152139D01*
X1099565Y-3138678D01*
X1094994Y-3129534D01*
X1085850Y-3120389D01*
X1004062Y-3076702D02*
G01*
X1081278Y-3076702D01*
X1094994Y-3072129D01*
X1099565Y-3063239D01*
X1099565Y-3054095D01*
X1035812Y-3090418D02*
G01*
X1035812Y-3058668D01*
X1004062Y-2917697D02*
G01*
X1099565Y-2954020D01*
X1004062Y-2917697D02*
G01*
X1099565Y-2881376D01*
X1067562Y-2940557D02*
G01*
X1067562Y-2895092D01*
X1022095Y-2851404D02*
G01*
X1017523Y-2842260D01*
X1004062Y-2828544D01*
X1099565Y-2828544D01*
X1004062Y-2789428D02*
G01*
X1004062Y-2739644D01*
X1040384Y-2766821D01*
X1040384Y-2753105D01*
X1044955Y-2743962D01*
X1049528Y-2739644D01*
X1062989Y-2735071D01*
X1072134Y-2735071D01*
X1085850Y-2739644D01*
X1094994Y-2748534D01*
X1099565Y-2762250D01*
X1099565Y-2775965D01*
X1094994Y-2789428D01*
X1090421Y-2794000D01*
X1081278Y-2798571D01*
X1004062Y-2598673D02*
G01*
X1004062Y-2607818D01*
X1008634Y-2616707D01*
X1022095Y-2621279D01*
X1099565Y-2621279D01*
X1035812Y-2634995D02*
G01*
X1035812Y-2603245D01*
X1035812Y-2568702D02*
G01*
X1099565Y-2568702D01*
X1062989Y-2568702D02*
G01*
X1049528Y-2564129D01*
X1040384Y-2554986D01*
X1035812Y-2545842D01*
X1035812Y-2532379D01*
X1035812Y-2479547D02*
G01*
X1040384Y-2488692D01*
X1049528Y-2497836D01*
X1062989Y-2502154D01*
X1072134Y-2502154D01*
X1085850Y-2497836D01*
X1094994Y-2488692D01*
X1099565Y-2479547D01*
X1099565Y-2465831D01*
X1094994Y-2456687D01*
X1085850Y-2447797D01*
X1072134Y-2443226D01*
X1062989Y-2443226D01*
X1049528Y-2447797D01*
X1040384Y-2456687D01*
X1035812Y-2465831D01*
X1035812Y-2479547D01*
X1035812Y-2413254D02*
G01*
X1099565Y-2413254D01*
X1054100Y-2413254D02*
G01*
X1040384Y-2399537D01*
X1035812Y-2390394D01*
X1035812Y-2376678D01*
X1040384Y-2367787D01*
X1054100Y-2363215D01*
X1099565Y-2363215D01*
X1054100Y-2363215D02*
G01*
X1040384Y-2349500D01*
X1035812Y-2340355D01*
X1035812Y-2326894D01*
X1040384Y-2317750D01*
X1054100Y-2313178D01*
X1099565Y-2313178D01*
X1035812Y-2213102D02*
G01*
X1099565Y-2213102D01*
X1054100Y-2213102D02*
G01*
X1040384Y-2199639D01*
X1035812Y-2190495D01*
X1035812Y-2176779D01*
X1040384Y-2167636D01*
X1054100Y-2163063D01*
X1099565Y-2163063D01*
X1054100Y-2163063D02*
G01*
X1040384Y-2149602D01*
X1035812Y-2140457D01*
X1035812Y-2126742D01*
X1040384Y-2117597D01*
X1054100Y-2113279D01*
X1099565Y-2113279D01*
X1035812Y-2060447D02*
G01*
X1040384Y-2069592D01*
X1049528Y-2078736D01*
X1062989Y-2083054D01*
X1072134Y-2083054D01*
X1085850Y-2078736D01*
X1094994Y-2069592D01*
X1099565Y-2060447D01*
X1099565Y-2046731D01*
X1094994Y-2037587D01*
X1085850Y-2028697D01*
X1072134Y-2024126D01*
X1062989Y-2024126D01*
X1049528Y-2028697D01*
X1040384Y-2037587D01*
X1035812Y-2046731D01*
X1035812Y-2060447D01*
X1004062Y-1980437D02*
G01*
X1081278Y-1980437D01*
X1094994Y-1975865D01*
X1099565Y-1966721D01*
X1099565Y-1957831D01*
X1035812Y-1994154D02*
G01*
X1035812Y-1962150D01*
X1004062Y-1927605D02*
G01*
X1099565Y-1927605D01*
X1054100Y-1927605D02*
G01*
X1040384Y-1914144D01*
X1035812Y-1905000D01*
X1035812Y-1891284D01*
X1040384Y-1882139D01*
X1054100Y-1877821D01*
X1099565Y-1877821D01*
X1062989Y-1847595D02*
G01*
X1062989Y-1793239D01*
X1054100Y-1793239D01*
X1044955Y-1797812D01*
X1040384Y-1802384D01*
X1035812Y-1811273D01*
X1035812Y-1824989D01*
X1040384Y-1834134D01*
X1049528Y-1843278D01*
X1062989Y-1847595D01*
X1072134Y-1847595D01*
X1085850Y-1843278D01*
X1094994Y-1834134D01*
X1099565Y-1824989D01*
X1099565Y-1811273D01*
X1094994Y-1802384D01*
X1085850Y-1793239D01*
X1035812Y-1763268D02*
G01*
X1099565Y-1763268D01*
X1062989Y-1763268D02*
G01*
X1049528Y-1758695D01*
X1040384Y-1749552D01*
X1035812Y-1740407D01*
X1035812Y-1726692D01*
X1004062Y-1696720D02*
G01*
X1099565Y-1696720D01*
X1049528Y-1696720D02*
G01*
X1040384Y-1687829D01*
X1035812Y-1678686D01*
X1035812Y-1664970D01*
X1040384Y-1655826D01*
X1049528Y-1646681D01*
X1062989Y-1642363D01*
X1072134Y-1642363D01*
X1085850Y-1646681D01*
X1094994Y-1655826D01*
X1099565Y-1664970D01*
X1099565Y-1678686D01*
X1094994Y-1687829D01*
X1085850Y-1696720D01*
X1035812Y-1589531D02*
G01*
X1040384Y-1598676D01*
X1049528Y-1607820D01*
X1062989Y-1612137D01*
X1072134Y-1612137D01*
X1085850Y-1607820D01*
X1094994Y-1598676D01*
X1099565Y-1589531D01*
X1099565Y-1575815D01*
X1094994Y-1566926D01*
X1085850Y-1557781D01*
X1072134Y-1553210D01*
X1062989Y-1553210D01*
X1049528Y-1557781D01*
X1040384Y-1566926D01*
X1035812Y-1575815D01*
X1035812Y-1589531D01*
X1035812Y-1468628D02*
G01*
X1099565Y-1468628D01*
X1049528Y-1468628D02*
G01*
X1040384Y-1477771D01*
X1035812Y-1486915D01*
X1035812Y-1500378D01*
X1040384Y-1509521D01*
X1049528Y-1518665D01*
X1062989Y-1523237D01*
X1072134Y-1523237D01*
X1085850Y-1518665D01*
X1094994Y-1509521D01*
X1099565Y-1500378D01*
X1099565Y-1486915D01*
X1094994Y-1477771D01*
X1085850Y-1468628D01*
X1035812Y-1438655D02*
G01*
X1099565Y-1438655D01*
X1062989Y-1438655D02*
G01*
X1049528Y-1434084D01*
X1040384Y-1424939D01*
X1035812Y-1415795D01*
X1035812Y-1402334D01*
X1004062Y-1317752D02*
G01*
X1099565Y-1317752D01*
X1049528Y-1317752D02*
G01*
X1040384Y-1326895D01*
X1035812Y-1335786D01*
X1035812Y-1349502D01*
X1040384Y-1358645D01*
X1049528Y-1367789D01*
X1062989Y-1372362D01*
X1072134Y-1372362D01*
X1085850Y-1367789D01*
X1094994Y-1358645D01*
X1099565Y-1349502D01*
X1099565Y-1335786D01*
X1094994Y-1326895D01*
X1085850Y-1317752D01*
X1205484Y-3593084D02*
G01*
X1282954Y-3593084D01*
X1296415Y-3588512D01*
X1300987Y-3579621D01*
X1300987Y-3570478D01*
X1237487Y-3606800D02*
G01*
X1237487Y-3575050D01*
X1237487Y-3517645D02*
G01*
X1242060Y-3526789D01*
X1250950Y-3535934D01*
X1264665Y-3540505D01*
X1273810Y-3540505D01*
X1287526Y-3535934D01*
X1296415Y-3526789D01*
X1300987Y-3517645D01*
X1300987Y-3504184D01*
X1296415Y-3495039D01*
X1287526Y-3485895D01*
X1273810Y-3481323D01*
X1264665Y-3481323D01*
X1250950Y-3485895D01*
X1242060Y-3495039D01*
X1237487Y-3504184D01*
X1237487Y-3517645D01*
X1205484Y-3335781D02*
G01*
X1278381Y-3335781D01*
X1291844Y-3340354D01*
X1296415Y-3344926D01*
X1300987Y-3354070D01*
X1300987Y-3363213D01*
X1296415Y-3372357D01*
X1291844Y-3376676D01*
X1278381Y-3381247D01*
X1269237Y-3381247D01*
X1223771Y-3305810D02*
G01*
X1219200Y-3296920D01*
X1205484Y-3283204D01*
X1300987Y-3283204D01*
X1260094Y-3253231D02*
G01*
X1260094Y-3171444D01*
X1205484Y-3104895D02*
G01*
X1300987Y-3141471D01*
X1205484Y-3104895D02*
G01*
X1300987Y-3068573D01*
X1269237Y-3127755D02*
G01*
X1269237Y-3082289D01*
X1223771Y-3038602D02*
G01*
X1219200Y-3029457D01*
X1205484Y-3015995D01*
X1300987Y-3015995D01*
X1205484Y-2976879D02*
G01*
X1205484Y-2926842D01*
X1242060Y-2954020D01*
X1242060Y-2940557D01*
X1246378Y-2931413D01*
X1250950Y-2926842D01*
X1264665Y-2922270D01*
X1273810Y-2922270D01*
X1287526Y-2926842D01*
X1296415Y-2935986D01*
X1300987Y-2949447D01*
X1300987Y-2963163D01*
X1296415Y-2976879D01*
X1291844Y-2981452D01*
X1282954Y-2985770D01*
X1407160Y-3570478D02*
G01*
X1502663Y-3606800D01*
X1407160Y-3570478D02*
G01*
X1502663Y-3534155D01*
X1470913Y-3593084D02*
G01*
X1470913Y-3547618D01*
X1425447Y-3504184D02*
G01*
X1420876Y-3495039D01*
X1407160Y-3481323D01*
X1502663Y-3481323D01*
X1407160Y-3442207D02*
G01*
X1407160Y-3392170D01*
X1443481Y-3419602D01*
X1443481Y-3405886D01*
X1448054Y-3396742D01*
X1452626Y-3392170D01*
X1466342Y-3387597D01*
X1475486Y-3387597D01*
X1488947Y-3392170D01*
X1498092Y-3401313D01*
X1502663Y-3415029D01*
X1502663Y-3428492D01*
X1498092Y-3442207D01*
X1493520Y-3446779D01*
X1484376Y-3451352D01*
X1448054Y-3353054D02*
G01*
X1452626Y-3357626D01*
X1457197Y-3353054D01*
X1452626Y-3348736D01*
X1448054Y-3353054D01*
X1479804Y-3353054D02*
G01*
X1484376Y-3357626D01*
X1488947Y-3353054D01*
X1484376Y-3348736D01*
X1479804Y-3353054D01*
X1407160Y-3248660D02*
G01*
X1475486Y-3248660D01*
X1488947Y-3244087D01*
X1498092Y-3234944D01*
X1502663Y-3221228D01*
X1502663Y-3212337D01*
X1498092Y-3198621D01*
X1488947Y-3189478D01*
X1475486Y-3184905D01*
X1407160Y-3184905D01*
X1420876Y-3091434D02*
G01*
X1411731Y-3100323D01*
X1407160Y-3114039D01*
X1407160Y-3132328D01*
X1411731Y-3145789D01*
X1420876Y-3154934D01*
X1430020Y-3154934D01*
X1438910Y-3150362D01*
X1443481Y-3145789D01*
X1448054Y-3136900D01*
X1457197Y-3109468D01*
X1461770Y-3100323D01*
X1466342Y-3096005D01*
X1475486Y-3091434D01*
X1488947Y-3091434D01*
X1498092Y-3100323D01*
X1502663Y-3114039D01*
X1502663Y-3132328D01*
X1498092Y-3145789D01*
X1488947Y-3154934D01*
X1448054Y-3056889D02*
G01*
X1452626Y-3061462D01*
X1457197Y-3056889D01*
X1452626Y-3052318D01*
X1448054Y-3056889D01*
X1479804Y-3056889D02*
G01*
X1484376Y-3061462D01*
X1488947Y-3056889D01*
X1484376Y-3052318D01*
X1479804Y-3056889D01*
X1407160Y-2952242D02*
G01*
X1502663Y-2952242D01*
X1430020Y-2854197D02*
G01*
X1420876Y-2858515D01*
X1411731Y-2867660D01*
X1407160Y-2876804D01*
X1407160Y-2895092D01*
X1411731Y-2903981D01*
X1420876Y-2913126D01*
X1430020Y-2917697D01*
X1443481Y-2922270D01*
X1466342Y-2922270D01*
X1479804Y-2917697D01*
X1488947Y-2913126D01*
X1498092Y-2903981D01*
X1502663Y-2895092D01*
X1502663Y-2876804D01*
X1498092Y-2867660D01*
X1488947Y-2858515D01*
X1479804Y-2854197D01*
X1407160Y-2690368D02*
G01*
X1502663Y-2754121D01*
X1407160Y-2754121D02*
G01*
X1407160Y-2690368D01*
X1502663Y-2754121D02*
G01*
X1502663Y-2690368D01*
X1407160Y-2651252D02*
G01*
X1407160Y-2601468D01*
X1443481Y-2628645D01*
X1443481Y-2614929D01*
X1448054Y-2605786D01*
X1452626Y-2601468D01*
X1466342Y-2596895D01*
X1475486Y-2596895D01*
X1488947Y-2601468D01*
X1498092Y-2610357D01*
X1502663Y-2624073D01*
X1502663Y-2637789D01*
X1498092Y-2651252D01*
X1493520Y-2655823D01*
X1484376Y-2660395D01*
X1407160Y-2544063D02*
G01*
X1411731Y-2557779D01*
X1420876Y-2562352D01*
X1430020Y-2562352D01*
X1438910Y-2557779D01*
X1443481Y-2548636D01*
X1448054Y-2530347D01*
X1452626Y-2516886D01*
X1461770Y-2507742D01*
X1470913Y-2503170D01*
X1484376Y-2503170D01*
X1493520Y-2507742D01*
X1498092Y-2512313D01*
X1502663Y-2525776D01*
X1502663Y-2544063D01*
X1498092Y-2557779D01*
X1493520Y-2562352D01*
X1484376Y-2566923D01*
X1470913Y-2566923D01*
X1461770Y-2562352D01*
X1452626Y-2553207D01*
X1448054Y-2539492D01*
X1443481Y-2521457D01*
X1438910Y-2512313D01*
X1430020Y-2507742D01*
X1420876Y-2507742D01*
X1411731Y-2512313D01*
X1407160Y-2525776D01*
X1407160Y-2544063D01*
X1461770Y-2473197D02*
G01*
X1461770Y-2391410D01*
X1438910Y-2361437D02*
G01*
X1534413Y-2361437D01*
X1452626Y-2361437D02*
G01*
X1443481Y-2352294D01*
X1438910Y-2343150D01*
X1438910Y-2329434D01*
X1443481Y-2320544D01*
X1452626Y-2311400D01*
X1466342Y-2306828D01*
X1475486Y-2306828D01*
X1488947Y-2311400D01*
X1498092Y-2320544D01*
X1502663Y-2329434D01*
X1502663Y-2343150D01*
X1498092Y-2352294D01*
X1488947Y-2361437D01*
X1407160Y-2276855D02*
G01*
X1411731Y-2272284D01*
X1407160Y-2267712D01*
X1402587Y-2272284D01*
X1407160Y-2276855D01*
X1438910Y-2272284D02*
G01*
X1502663Y-2272284D01*
X1438910Y-2237739D02*
G01*
X1502663Y-2237739D01*
X1457197Y-2237739D02*
G01*
X1443481Y-2224023D01*
X1438910Y-2214879D01*
X1438910Y-2201418D01*
X1443481Y-2192273D01*
X1457197Y-2187702D01*
X1502663Y-2187702D01*
X1407160Y-2093976D02*
G01*
X1502663Y-2139442D01*
X1407160Y-2157729D02*
G01*
X1407160Y-2093976D01*
X1484376Y-2054860D02*
G01*
X1488947Y-2059431D01*
X1484376Y-2064004D01*
X1479804Y-2059431D01*
X1484376Y-2054860D01*
X1493520Y-2054860D01*
X1502663Y-2064004D01*
X1407160Y-1909571D02*
G01*
X1479804Y-1909571D01*
X1493520Y-1914144D01*
X1498092Y-1918715D01*
X1502663Y-1927605D01*
X1502663Y-1936750D01*
X1498092Y-1945894D01*
X1493520Y-1950465D01*
X1479804Y-1955037D01*
X1470913Y-1955037D01*
X1438910Y-1824989D02*
G01*
X1502663Y-1824989D01*
X1452626Y-1824989D02*
G01*
X1443481Y-1834134D01*
X1438910Y-1843278D01*
X1438910Y-1856739D01*
X1443481Y-1865884D01*
X1452626Y-1875028D01*
X1466342Y-1879600D01*
X1475486Y-1879600D01*
X1488947Y-1875028D01*
X1498092Y-1865884D01*
X1502663Y-1856739D01*
X1502663Y-1843278D01*
X1498092Y-1834134D01*
X1488947Y-1824989D01*
X1438910Y-1795018D02*
G01*
X1534413Y-1795018D01*
X1452626Y-1795018D02*
G01*
X1443481Y-1785873D01*
X1438910Y-1776729D01*
X1438910Y-1763268D01*
X1443481Y-1754123D01*
X1452626Y-1744979D01*
X1466342Y-1740407D01*
X1475486Y-1740407D01*
X1488947Y-1744979D01*
X1498092Y-1754123D01*
X1502663Y-1763268D01*
X1502663Y-1776729D01*
X1498092Y-1785873D01*
X1488947Y-1795018D01*
X1448054Y-1705863D02*
G01*
X1452626Y-1710436D01*
X1457197Y-1705863D01*
X1452626Y-1701292D01*
X1448054Y-1705863D01*
X1479804Y-1705863D02*
G01*
X1484376Y-1710436D01*
X1488947Y-1705863D01*
X1484376Y-1701292D01*
X1479804Y-1705863D01*
X1407160Y-1537715D02*
G01*
X1502663Y-1601470D01*
X1407160Y-1601470D02*
G01*
X1407160Y-1537715D01*
X1502663Y-1601470D02*
G01*
X1502663Y-1537715D01*
X1407160Y-1462278D02*
G01*
X1470913Y-1507744D01*
X1470913Y-1439418D01*
X1407160Y-1462278D02*
G01*
X1502663Y-1462278D01*
X1438910Y-1350518D02*
G01*
X1452626Y-1355089D01*
X1461770Y-1363979D01*
X1466342Y-1377695D01*
X1466342Y-1382268D01*
X1461770Y-1395984D01*
X1452626Y-1404873D01*
X1438910Y-1409445D01*
X1434337Y-1409445D01*
X1420876Y-1404873D01*
X1411731Y-1395984D01*
X1407160Y-1382268D01*
X1407160Y-1377695D01*
X1411731Y-1363979D01*
X1420876Y-1355089D01*
X1438910Y-1350518D01*
X1461770Y-1350518D01*
X1484376Y-1355089D01*
X1498092Y-1363979D01*
X1502663Y-1377695D01*
X1502663Y-1386839D01*
X1498092Y-1400555D01*
X1488947Y-1404873D01*
X1461770Y-1320545D02*
G01*
X1461770Y-1238504D01*
X1438910Y-1208531D02*
G01*
X1534413Y-1208531D01*
X1452626Y-1208531D02*
G01*
X1443481Y-1199642D01*
X1438910Y-1190497D01*
X1438910Y-1176781D01*
X1443481Y-1167637D01*
X1452626Y-1158747D01*
X1466342Y-1154176D01*
X1475486Y-1154176D01*
X1488947Y-1158747D01*
X1498092Y-1167637D01*
X1502663Y-1176781D01*
X1502663Y-1190497D01*
X1498092Y-1199642D01*
X1488947Y-1208531D01*
X1407160Y-1124204D02*
G01*
X1411731Y-1119631D01*
X1407160Y-1115060D01*
X1402587Y-1119631D01*
X1407160Y-1124204D01*
X1438910Y-1119631D02*
G01*
X1502663Y-1119631D01*
X1438910Y-1085087D02*
G01*
X1502663Y-1085087D01*
X1457197Y-1085087D02*
G01*
X1443481Y-1071371D01*
X1438910Y-1062228D01*
X1438910Y-1048512D01*
X1443481Y-1039621D01*
X1457197Y-1035050D01*
X1502663Y-1035050D01*
X1407160Y-941323D02*
G01*
X1502663Y-986789D01*
X1407160Y-1005078D02*
G01*
X1407160Y-941323D01*
X1071879Y-228092D02*
G01*
X1071879Y-223012D01*
X1077213Y-212597D01*
X1082294Y-207263D01*
X1092707Y-202184D01*
X1113536Y-202184D01*
X1123950Y-207263D01*
X1129029Y-212597D01*
X1134363Y-223012D01*
X1134363Y-233426D01*
X1129029Y-243839D01*
X1118870Y-259334D01*
X1066800Y-311150D01*
X1139444Y-311150D01*
X1246631Y-202184D02*
G01*
X1194562Y-311150D01*
X1173734Y-202184D02*
G01*
X1246631Y-202184D01*
X1286002Y-228092D02*
G01*
X1286002Y-223012D01*
X1291336Y-212597D01*
X1296415Y-207263D01*
X1306829Y-202184D01*
X1327657Y-202184D01*
X1338071Y-207263D01*
X1343152Y-212597D01*
X1348486Y-223012D01*
X1348486Y-233426D01*
X1343152Y-243839D01*
X1332737Y-259334D01*
X1280921Y-311150D01*
X1353565Y-311150D01*
X1450339Y-202184D02*
G01*
X1398270Y-202184D01*
X1393189Y-248920D01*
X1398270Y-243839D01*
X1413763Y-238505D01*
X1429512Y-238505D01*
X1445005Y-243839D01*
X1455420Y-254000D01*
X1460500Y-269747D01*
X1460500Y-280162D01*
X1455420Y-295655D01*
X1445005Y-306070D01*
X1429512Y-311150D01*
X1413763Y-311150D01*
X1398270Y-306070D01*
X1393189Y-300989D01*
X1387855Y-290576D01*
X1557273Y-217678D02*
G01*
X1551939Y-207263D01*
X1536445Y-202184D01*
X1526031Y-202184D01*
X1510537Y-207263D01*
X1500123Y-223012D01*
X1494789Y-248920D01*
X1494789Y-274828D01*
X1500123Y-295655D01*
X1510537Y-306070D01*
X1526031Y-311150D01*
X1531365Y-311150D01*
X1546860Y-306070D01*
X1557273Y-295655D01*
X1562354Y-280162D01*
X1562354Y-274828D01*
X1557273Y-259334D01*
X1546860Y-248920D01*
X1531365Y-243839D01*
X1526031Y-243839D01*
X1510537Y-248920D01*
X1500123Y-259334D01*
X1494789Y-274828D01*
X508000Y-189484D02*
G01*
X508000Y-267462D01*
X513079Y-282955D01*
X523494Y-293370D01*
X539242Y-298450D01*
X549655Y-298450D01*
X565150Y-293370D01*
X575563Y-282955D01*
X580644Y-267462D01*
X580644Y-189484D01*
X620268Y-215392D02*
G01*
X620268Y-210312D01*
X625347Y-199897D01*
X630681Y-194563D01*
X641095Y-189484D01*
X661670Y-189484D01*
X672084Y-194563D01*
X677418Y-199897D01*
X682497Y-210312D01*
X682497Y-220726D01*
X677418Y-231139D01*
X667004Y-246634D01*
X614934Y-298450D01*
X687831Y-298450D01*
X2884170Y-2538984D02*
G01*
X2884170Y-2622042D01*
X2878836Y-2637789D01*
X2873756Y-2642870D01*
X2863341Y-2647950D01*
X2852927Y-2647950D01*
X2842513Y-2642870D01*
X2837179Y-2637789D01*
X2832100Y-2622042D01*
X2832100Y-2611628D01*
X2918459Y-2559812D02*
G01*
X2928620Y-2554478D01*
X2944368Y-2538984D01*
X2944368Y-2647950D01*
X812800Y-684784D02*
G01*
X812800Y-762762D01*
X817879Y-778255D01*
X828294Y-788670D01*
X844042Y-793750D01*
X854455Y-793750D01*
X869950Y-788670D01*
X880363Y-778255D01*
X885444Y-762762D01*
X885444Y-684784D01*
X919734Y-705612D02*
G01*
X930147Y-700278D01*
X945895Y-684784D01*
X945895Y-793750D01*
D12*
X812800Y-494284D02*
G01*
X812800Y-603250D01*
X812800Y-494284D02*
G01*
X859536Y-494284D01*
X875029Y-499363D01*
X880363Y-504697D01*
X885444Y-515112D01*
X885444Y-525526D01*
X880363Y-535939D01*
X875029Y-541020D01*
X859536Y-546100D01*
X812800Y-546100D01*
X849121Y-546100D02*
G01*
X885444Y-603250D01*
X950976Y-494284D02*
G01*
X940562Y-499363D01*
X930147Y-509778D01*
X925068Y-520192D01*
X919734Y-535939D01*
X919734Y-561847D01*
X925068Y-577342D01*
X930147Y-587755D01*
X940562Y-598170D01*
X950976Y-603250D01*
X971804Y-603250D01*
X982218Y-598170D01*
X992631Y-587755D01*
X997712Y-577342D01*
X1003045Y-561847D01*
X1003045Y-535939D01*
X997712Y-520192D01*
X992631Y-509778D01*
X982218Y-499363D01*
X971804Y-494284D01*
X950976Y-494284D01*
X1037336Y-494284D02*
G01*
X1037336Y-603250D01*
X1037336Y-494284D02*
G01*
X1078737Y-603250D01*
X1120394Y-494284D02*
G01*
X1078737Y-603250D01*
X1120394Y-494284D02*
G01*
X1120394Y-603250D01*
X1307337Y-509778D02*
G01*
X1296923Y-499363D01*
X1281429Y-494284D01*
X1260602Y-494284D01*
X1245107Y-499363D01*
X1234694Y-509778D01*
X1234694Y-520192D01*
X1239773Y-530605D01*
X1245107Y-535939D01*
X1255521Y-541020D01*
X1286510Y-551434D01*
X1296923Y-556513D01*
X1302257Y-561847D01*
X1307337Y-572262D01*
X1307337Y-587755D01*
X1296923Y-598170D01*
X1281429Y-603250D01*
X1260602Y-603250D01*
X1245107Y-598170D01*
X1234694Y-587755D01*
X1367789Y-530605D02*
G01*
X1357376Y-535939D01*
X1346962Y-546100D01*
X1341628Y-561847D01*
X1341628Y-572262D01*
X1346962Y-587755D01*
X1357376Y-598170D01*
X1367789Y-603250D01*
X1383284Y-603250D01*
X1393697Y-598170D01*
X1404112Y-587755D01*
X1409192Y-572262D01*
X1409192Y-561847D01*
X1404112Y-546100D01*
X1393697Y-535939D01*
X1383284Y-530605D01*
X1367789Y-530605D01*
X1505965Y-546100D02*
G01*
X1495552Y-535939D01*
X1485137Y-530605D01*
X1469389Y-530605D01*
X1459229Y-535939D01*
X1448815Y-546100D01*
X1443481Y-561847D01*
X1443481Y-572262D01*
X1448815Y-587755D01*
X1459229Y-598170D01*
X1469389Y-603250D01*
X1485137Y-603250D01*
X1495552Y-598170D01*
X1505965Y-587755D01*
X1540255Y-494284D02*
G01*
X1540255Y-603250D01*
X1592071Y-530605D02*
G01*
X1540255Y-582676D01*
X1560829Y-561847D02*
G01*
X1597405Y-603250D01*
X1631695Y-561847D02*
G01*
X1693926Y-561847D01*
X1693926Y-551434D01*
X1688845Y-541020D01*
X1683512Y-535939D01*
X1673097Y-530605D01*
X1657604Y-530605D01*
X1647189Y-535939D01*
X1636776Y-546100D01*
X1631695Y-561847D01*
X1631695Y-572262D01*
X1636776Y-587755D01*
X1647189Y-598170D01*
X1657604Y-603250D01*
X1673097Y-603250D01*
X1683512Y-598170D01*
X1693926Y-587755D01*
X1743710Y-494284D02*
G01*
X1743710Y-582676D01*
X1749044Y-598170D01*
X1759457Y-603250D01*
X1769871Y-603250D01*
X1728215Y-530605D02*
G01*
X1764537Y-530605D01*
D13*
X2413000Y-2921000D02*
G01*
X2413000Y-3175000D01*
X2667000Y-3175000D01*
X2667000Y-2921000D02*
G01*
X2413000Y-2921000D01*
X2413000Y-2667000D01*
X2667000Y-2667000D01*
D14*
X381000Y-127000D02*
G01*
X1651000Y-127000D01*
X1651000Y-3683000D01*
X381000Y-3683000D01*
X381000Y-127000D01*
D12*
X2540000Y-2540000D02*
G01*
X2794000Y-2540000D01*
X2794000Y-3556000D01*
X2540000Y-3556000D01*
X2540000Y-3365500D01*
D15*
X2540000Y-2540000D02*
G01*
X2540000Y-3365500D01*
D16*
X762000Y-635000D02*
G01*
X762000Y-3683000D01*
X2032000Y-3683000D01*
X2032000Y-635000D01*
X762000Y-635000D01*
D14*
G75*
G01*
X1270000Y-127000D02*
G02*
X762000Y-127000I-254000J0D01*
D16*
G75*
G01*
X1498600Y-635000D02*
G02*
X1270000Y-660400I-114323J-12493D01*
M02*
