G04 Layer: TopLayer*
G04 EasyEDA v6.5.29, 2023-07-31 08:11:24*
G04 1ebaea4ae95649dd8011ffabadda3e85,10*
G04 Gerber Generator version 0.2*
G04 Scale: 100 percent, Rotated: No, Reflected: No *
G04 Dimensions in millimeters *
G04 leading zeros omitted , absolute positions ,4 integer and 5 decimal *
%FSLAX45Y45*%
%MOMM*%

%ADD10C,0.3000*%
%ADD11C,0.3800*%
%ADD12O,2.999994X2.2199854*%
%ADD13C,2.2200*%
%ADD14R,2.2200X2.2200*%
%ADD15C,1.7780*%
%ADD16R,1.7780X1.7780*%
%ADD17O,2.1999956000000003X1.499997*%
%ADD18C,2.2230*%
%ADD19R,2.2230X2.2230*%
%ADD20O,2.999994X2.223008*%

%LPD*%
D10*
X1778000Y-762000D02*
G01*
X1574800Y-762000D01*
X1397000Y-939800D01*
X1397000Y-3568700D01*
X1600200Y-3771900D01*
X2463800Y-3771900D01*
X2667000Y-3568700D01*
X2667000Y-3429000D01*
D11*
X1778000Y-254000D02*
G01*
X2032000Y-254000D01*
X2159000Y-381000D01*
X2159000Y-762000D01*
D10*
X1778000Y-1778000D02*
G01*
X1714500Y-1778000D01*
X1600200Y-1892300D01*
X1600200Y-2184400D01*
X1701800Y-2286000D01*
X1778000Y-2286000D01*
X254000Y-508000D02*
G01*
X177800Y-508000D01*
X63500Y-393700D01*
X63500Y-165100D01*
X152400Y-76200D01*
X2006600Y-76200D01*
X2362200Y-431800D01*
X2362200Y-1320800D01*
X2159000Y-1524000D01*
X254000Y-762000D02*
G01*
X635000Y-762000D01*
D11*
X254000Y-254000D02*
G01*
X1778000Y-254000D01*
D10*
X1778000Y-3556000D02*
G01*
X2159000Y-3556000D01*
X1778000Y-3302000D02*
G01*
X2159000Y-3302000D01*
X1778000Y-3048000D02*
G01*
X2159000Y-3048000D01*
X1778000Y-2794000D02*
G01*
X2159000Y-2794000D01*
X1778000Y-2540000D02*
G01*
X2159000Y-2540000D01*
X1778000Y-2032000D02*
G01*
X2159000Y-2032000D01*
X1778000Y-1778000D02*
G01*
X2159000Y-1778000D01*
X1778000Y-1270000D02*
G01*
X2159000Y-1270000D01*
X1778000Y-1016000D02*
G01*
X2159000Y-1016000D01*
X254000Y-3302000D02*
G01*
X635000Y-3302000D01*
X254000Y-3048000D02*
G01*
X635000Y-3048000D01*
X254000Y-2794000D02*
G01*
X635000Y-2794000D01*
X254000Y-2540000D02*
G01*
X635000Y-2540000D01*
X254000Y-2286000D02*
G01*
X635000Y-2286000D01*
X254000Y-2032000D02*
G01*
X635000Y-2032000D01*
X254000Y-1778000D02*
G01*
X635000Y-1778000D01*
X254000Y-1524000D02*
G01*
X635000Y-1524000D01*
X254000Y-1270000D02*
G01*
X635000Y-1270000D01*
X254000Y-1016000D02*
G01*
X635000Y-1016000D01*
D12*
G01*
X254000Y-254000D03*
D13*
G01*
X254000Y-508000D03*
G01*
X254000Y-762000D03*
G01*
X254000Y-1016000D03*
G01*
X254000Y-1270000D03*
G01*
X254000Y-1524000D03*
G01*
X254000Y-1778000D03*
G01*
X254000Y-2032000D03*
G01*
X254000Y-2286000D03*
G01*
X254000Y-2540000D03*
G01*
X254000Y-2794000D03*
G01*
X254000Y-3048000D03*
G01*
X254000Y-3302000D03*
D14*
G01*
X254000Y-3556000D03*
D13*
G01*
X1778000Y-3556000D03*
G01*
X1778000Y-3302000D03*
G01*
X1778000Y-3048000D03*
G01*
X1778000Y-2794000D03*
G01*
X1778000Y-2540000D03*
G01*
X1778000Y-2286000D03*
G01*
X1778000Y-2032000D03*
G01*
X1778000Y-1778000D03*
G01*
X1778000Y-1524000D03*
G01*
X1778000Y-1270000D03*
G01*
X1778000Y-1016000D03*
G01*
X1778000Y-762000D03*
G01*
X1778000Y-508000D03*
G01*
X1778000Y-254000D03*
D15*
G01*
X2667000Y-3429000D03*
D16*
G01*
X2667000Y-3175000D03*
D15*
G01*
X2667000Y-2921000D03*
D17*
G01*
X2667000Y-2667000D03*
D18*
G01*
X635000Y-762000D03*
G01*
X635000Y-1016000D03*
G01*
X635000Y-1270000D03*
G01*
X635000Y-1524000D03*
G01*
X635000Y-1778000D03*
G01*
X635000Y-2032000D03*
G01*
X635000Y-2286000D03*
G01*
X635000Y-2540000D03*
G01*
X635000Y-2794000D03*
G01*
X635000Y-3048000D03*
G01*
X635000Y-3302000D03*
D19*
G01*
X635000Y-3556000D03*
D18*
G01*
X2159000Y-3556000D03*
G01*
X2159000Y-3302000D03*
G01*
X2159000Y-3048000D03*
G01*
X2159000Y-2794000D03*
G01*
X2159000Y-2540000D03*
G01*
X2159000Y-2286000D03*
G01*
X2159000Y-2032000D03*
G01*
X2159000Y-1778000D03*
G01*
X2159000Y-1524000D03*
G01*
X2159000Y-1270000D03*
G01*
X2159000Y-1016000D03*
D20*
G01*
X2159000Y-762000D03*
M02*
