G04 Layer: BottomLayer*
G04 EasyEDA v6.5.29, 2023-07-31 08:11:24*
G04 1ebaea4ae95649dd8011ffabadda3e85,10*
G04 Gerber Generator version 0.2*
G04 Scale: 100 percent, Rotated: No, Reflected: No *
G04 Dimensions in millimeters *
G04 leading zeros omitted , absolute positions ,4 integer and 5 decimal *
%FSLAX45Y45*%
%MOMM*%

%ADD10C,0.3000*%
%ADD11C,0.3800*%
%ADD12O,2.999994X2.2199854*%
%ADD13C,2.2200*%
%ADD14R,2.2200X2.2200*%
%ADD15C,1.7780*%
%ADD16R,1.7780X1.7780*%
%ADD17O,2.1999956000000003X1.499997*%
%ADD18C,2.2230*%
%ADD19R,2.2230X2.2230*%
%ADD20O,2.999994X2.223008*%
%ADD21O,0.0125X2.223008*%

%LPD*%
G36*
X36068Y-3872992D02*
G01*
X32156Y-3872229D01*
X28905Y-3869994D01*
X26670Y-3866743D01*
X25908Y-3862832D01*
X25908Y-36068D01*
X26670Y-32156D01*
X28905Y-28905D01*
X32156Y-26670D01*
X36068Y-25908D01*
X3075432Y-25908D01*
X3079343Y-26670D01*
X3082594Y-28905D01*
X3084830Y-32156D01*
X3085592Y-36068D01*
X3085592Y-3862832D01*
X3084830Y-3866743D01*
X3082594Y-3869994D01*
X3079343Y-3872229D01*
X3075432Y-3872992D01*
G37*

%LPC*%
G36*
X696925Y-3693058D02*
G01*
X745591Y-3693058D01*
X751890Y-3692347D01*
X757377Y-3690416D01*
X762254Y-3687368D01*
X766368Y-3683254D01*
X769416Y-3678377D01*
X771347Y-3672890D01*
X772058Y-3666591D01*
X772058Y-3617925D01*
X696925Y-3617925D01*
G37*
G36*
X524408Y-3693058D02*
G01*
X573074Y-3693058D01*
X573074Y-3617925D01*
X497941Y-3617925D01*
X497941Y-3666591D01*
X498652Y-3672890D01*
X500583Y-3678377D01*
X503631Y-3683254D01*
X507746Y-3687368D01*
X512622Y-3690416D01*
X518109Y-3692347D01*
G37*
G36*
X2159000Y-3693058D02*
G01*
X2174900Y-3692093D01*
X2190597Y-3689350D01*
X2205888Y-3684778D01*
X2220518Y-3678478D01*
X2234285Y-3670503D01*
X2247087Y-3661003D01*
X2258669Y-3650030D01*
X2268931Y-3637838D01*
X2277668Y-3624529D01*
X2284831Y-3610254D01*
X2290267Y-3595319D01*
X2293975Y-3579774D01*
X2295804Y-3563975D01*
X2295804Y-3548024D01*
X2293975Y-3532225D01*
X2290267Y-3516680D01*
X2284831Y-3501745D01*
X2277668Y-3487470D01*
X2268931Y-3474161D01*
X2258669Y-3461969D01*
X2247087Y-3450996D01*
X2234285Y-3441496D01*
X2227884Y-3437788D01*
X2224735Y-3434994D01*
X2223008Y-3431133D01*
X2223008Y-3426866D01*
X2224735Y-3423005D01*
X2227884Y-3420211D01*
X2234285Y-3416503D01*
X2247087Y-3407003D01*
X2258669Y-3396030D01*
X2268931Y-3383838D01*
X2277668Y-3370529D01*
X2284831Y-3356254D01*
X2290267Y-3341319D01*
X2293975Y-3325774D01*
X2295804Y-3309975D01*
X2295804Y-3294024D01*
X2293975Y-3278225D01*
X2290267Y-3262680D01*
X2284831Y-3247745D01*
X2277668Y-3233470D01*
X2268931Y-3220161D01*
X2258669Y-3207969D01*
X2247087Y-3196996D01*
X2234285Y-3187496D01*
X2227884Y-3183788D01*
X2224735Y-3180994D01*
X2223008Y-3177133D01*
X2223008Y-3172866D01*
X2224735Y-3169005D01*
X2227884Y-3166211D01*
X2234285Y-3162503D01*
X2247087Y-3153003D01*
X2258669Y-3142030D01*
X2268931Y-3129838D01*
X2277668Y-3116529D01*
X2284831Y-3102254D01*
X2290267Y-3087319D01*
X2293975Y-3071774D01*
X2295804Y-3055975D01*
X2295804Y-3040024D01*
X2293975Y-3024225D01*
X2290267Y-3008680D01*
X2284831Y-2993745D01*
X2277668Y-2979470D01*
X2268931Y-2966161D01*
X2258669Y-2953969D01*
X2247087Y-2942996D01*
X2234285Y-2933496D01*
X2227884Y-2929788D01*
X2224735Y-2926994D01*
X2223008Y-2923133D01*
X2223008Y-2918866D01*
X2224735Y-2915005D01*
X2227884Y-2912211D01*
X2234285Y-2908503D01*
X2247087Y-2899003D01*
X2258669Y-2888030D01*
X2268931Y-2875838D01*
X2277668Y-2862529D01*
X2284831Y-2848254D01*
X2290267Y-2833319D01*
X2293975Y-2817774D01*
X2295804Y-2801975D01*
X2295804Y-2786024D01*
X2293975Y-2770225D01*
X2290267Y-2754680D01*
X2284831Y-2739745D01*
X2277668Y-2725470D01*
X2268931Y-2712161D01*
X2258669Y-2699969D01*
X2247087Y-2688996D01*
X2234285Y-2679496D01*
X2227884Y-2675788D01*
X2224735Y-2672994D01*
X2223008Y-2669133D01*
X2223008Y-2664866D01*
X2224735Y-2661005D01*
X2227884Y-2658211D01*
X2234285Y-2654503D01*
X2247087Y-2645003D01*
X2258669Y-2634030D01*
X2268931Y-2621838D01*
X2277668Y-2608529D01*
X2284831Y-2594254D01*
X2290267Y-2579319D01*
X2293975Y-2563774D01*
X2295804Y-2547975D01*
X2295804Y-2532024D01*
X2293975Y-2516225D01*
X2290267Y-2500680D01*
X2284831Y-2485745D01*
X2277668Y-2471470D01*
X2268931Y-2458161D01*
X2258669Y-2445969D01*
X2247087Y-2434996D01*
X2234285Y-2425496D01*
X2227884Y-2421788D01*
X2224735Y-2418994D01*
X2223008Y-2415133D01*
X2223008Y-2410866D01*
X2224735Y-2407005D01*
X2227884Y-2404211D01*
X2234285Y-2400503D01*
X2247087Y-2391003D01*
X2258669Y-2380030D01*
X2268931Y-2367838D01*
X2277668Y-2354529D01*
X2284831Y-2340254D01*
X2290267Y-2325319D01*
X2293975Y-2309774D01*
X2295804Y-2293975D01*
X2295804Y-2278024D01*
X2293975Y-2262225D01*
X2290267Y-2246680D01*
X2284831Y-2231745D01*
X2277668Y-2217470D01*
X2268931Y-2204161D01*
X2258669Y-2191969D01*
X2247087Y-2180996D01*
X2234285Y-2171496D01*
X2227884Y-2167788D01*
X2224735Y-2164994D01*
X2223008Y-2161133D01*
X2223008Y-2156866D01*
X2224735Y-2153005D01*
X2227884Y-2150211D01*
X2234285Y-2146503D01*
X2247087Y-2137003D01*
X2258669Y-2126030D01*
X2268931Y-2113838D01*
X2277668Y-2100529D01*
X2284831Y-2086254D01*
X2290267Y-2071319D01*
X2293975Y-2055774D01*
X2295804Y-2039975D01*
X2295804Y-2024024D01*
X2293975Y-2008225D01*
X2290267Y-1992680D01*
X2284831Y-1977745D01*
X2277668Y-1963470D01*
X2268931Y-1950161D01*
X2258669Y-1937969D01*
X2247087Y-1926996D01*
X2234285Y-1917496D01*
X2227884Y-1913788D01*
X2224735Y-1910994D01*
X2223008Y-1907133D01*
X2223008Y-1902866D01*
X2224735Y-1899005D01*
X2227884Y-1896211D01*
X2234285Y-1892503D01*
X2247087Y-1883003D01*
X2258669Y-1872030D01*
X2268931Y-1859838D01*
X2277668Y-1846529D01*
X2284831Y-1832254D01*
X2290267Y-1817319D01*
X2293975Y-1801774D01*
X2295804Y-1785975D01*
X2295804Y-1770024D01*
X2293975Y-1754225D01*
X2290267Y-1738680D01*
X2284831Y-1723745D01*
X2277668Y-1709470D01*
X2268931Y-1696161D01*
X2258669Y-1683969D01*
X2247087Y-1672996D01*
X2234285Y-1663496D01*
X2227884Y-1659788D01*
X2224735Y-1656994D01*
X2223008Y-1653133D01*
X2223008Y-1648866D01*
X2224735Y-1645005D01*
X2227884Y-1642211D01*
X2234285Y-1638503D01*
X2247087Y-1629003D01*
X2258669Y-1618030D01*
X2268931Y-1605838D01*
X2277668Y-1592529D01*
X2284831Y-1578254D01*
X2290267Y-1563319D01*
X2293975Y-1547774D01*
X2295804Y-1531975D01*
X2295804Y-1516024D01*
X2293975Y-1500225D01*
X2290267Y-1484680D01*
X2284831Y-1469745D01*
X2277668Y-1455470D01*
X2268931Y-1442161D01*
X2258669Y-1429969D01*
X2247087Y-1418996D01*
X2234285Y-1409496D01*
X2227884Y-1405788D01*
X2224735Y-1402994D01*
X2223008Y-1399133D01*
X2223008Y-1394866D01*
X2224735Y-1391005D01*
X2227884Y-1388211D01*
X2234285Y-1384503D01*
X2247087Y-1375003D01*
X2258669Y-1364030D01*
X2268931Y-1351838D01*
X2277668Y-1338529D01*
X2284831Y-1324254D01*
X2290267Y-1309319D01*
X2293975Y-1293774D01*
X2295804Y-1277975D01*
X2295804Y-1262024D01*
X2293975Y-1246225D01*
X2290267Y-1230680D01*
X2284831Y-1215745D01*
X2277668Y-1201470D01*
X2268931Y-1188161D01*
X2258669Y-1175969D01*
X2247087Y-1164996D01*
X2234285Y-1155496D01*
X2227884Y-1151788D01*
X2224735Y-1148994D01*
X2223008Y-1145133D01*
X2223008Y-1140866D01*
X2224735Y-1137005D01*
X2227884Y-1134211D01*
X2234285Y-1130503D01*
X2247087Y-1121003D01*
X2258669Y-1110030D01*
X2268931Y-1097838D01*
X2277668Y-1084529D01*
X2284831Y-1070254D01*
X2290267Y-1055319D01*
X2293975Y-1039774D01*
X2295804Y-1023975D01*
X2295804Y-1008024D01*
X2293975Y-992225D01*
X2290267Y-976680D01*
X2284831Y-961745D01*
X2277668Y-947470D01*
X2268931Y-934161D01*
X2258669Y-921969D01*
X2247087Y-910996D01*
X2243124Y-908050D01*
X2240330Y-904900D01*
X2239060Y-900836D01*
X2239568Y-896670D01*
X2241702Y-893013D01*
X2245156Y-890574D01*
X2259330Y-884478D01*
X2273147Y-876503D01*
X2285949Y-867003D01*
X2297531Y-856030D01*
X2307793Y-843838D01*
X2316530Y-830529D01*
X2323693Y-816254D01*
X2324658Y-813612D01*
X2326792Y-810107D01*
X2330196Y-807720D01*
X2334209Y-806907D01*
X2352090Y-806907D01*
X2356002Y-807669D01*
X2359253Y-809904D01*
X2453995Y-904646D01*
X2456230Y-907897D01*
X2456992Y-911809D01*
X2457043Y-2503627D01*
X2458212Y-2512161D01*
X2460853Y-2520035D01*
X2464866Y-2527249D01*
X2470454Y-2534005D01*
X2542286Y-2605786D01*
X2544572Y-2609291D01*
X2545232Y-2613406D01*
X2544165Y-2617470D01*
X2538780Y-2628392D01*
X2534564Y-2640888D01*
X2531973Y-2653842D01*
X2531110Y-2667000D01*
X2531973Y-2680157D01*
X2534564Y-2693111D01*
X2538780Y-2705608D01*
X2544622Y-2717444D01*
X2551938Y-2728417D01*
X2560675Y-2738323D01*
X2570581Y-2747060D01*
X2581554Y-2754376D01*
X2593390Y-2760218D01*
X2605887Y-2764434D01*
X2618841Y-2767025D01*
X2632354Y-2767888D01*
X2701645Y-2767888D01*
X2715158Y-2767025D01*
X2728112Y-2764434D01*
X2740609Y-2760218D01*
X2752445Y-2754376D01*
X2763418Y-2747060D01*
X2773324Y-2738323D01*
X2782062Y-2728417D01*
X2789377Y-2717444D01*
X2795219Y-2705608D01*
X2799435Y-2693111D01*
X2802026Y-2680157D01*
X2802890Y-2667000D01*
X2802026Y-2653842D01*
X2799435Y-2640888D01*
X2795219Y-2628392D01*
X2789377Y-2616555D01*
X2782062Y-2605582D01*
X2773324Y-2595676D01*
X2763418Y-2586939D01*
X2752445Y-2579624D01*
X2740609Y-2573782D01*
X2728112Y-2569565D01*
X2715158Y-2566974D01*
X2701645Y-2566111D01*
X2633827Y-2566111D01*
X2629916Y-2565298D01*
X2626614Y-2563114D01*
X2549804Y-2486253D01*
X2547569Y-2483002D01*
X2546807Y-2479090D01*
X2546756Y-887272D01*
X2545588Y-878738D01*
X2542946Y-870864D01*
X2538933Y-863650D01*
X2533345Y-856894D01*
X2405430Y-729081D01*
X2398522Y-723849D01*
X2391105Y-720140D01*
X2383129Y-717905D01*
X2374442Y-717092D01*
X2334209Y-717092D01*
X2330196Y-716280D01*
X2326792Y-713892D01*
X2324658Y-710387D01*
X2323693Y-707745D01*
X2316530Y-693470D01*
X2307793Y-680161D01*
X2297531Y-667969D01*
X2285949Y-656996D01*
X2273147Y-647496D01*
X2259330Y-639521D01*
X2244699Y-633222D01*
X2229459Y-628650D01*
X2213762Y-625906D01*
X2197557Y-624941D01*
X2120442Y-624941D01*
X2104237Y-625906D01*
X2088540Y-628650D01*
X2073300Y-633222D01*
X2058670Y-639521D01*
X2044852Y-647496D01*
X2032050Y-656996D01*
X2020468Y-667969D01*
X2010206Y-680161D01*
X2001469Y-693470D01*
X1994306Y-707745D01*
X1988870Y-722680D01*
X1985213Y-738225D01*
X1983333Y-754024D01*
X1983333Y-769975D01*
X1985213Y-785774D01*
X1988870Y-801319D01*
X1994306Y-816254D01*
X2001469Y-830529D01*
X2010206Y-843838D01*
X2020468Y-856030D01*
X2032050Y-867003D01*
X2044852Y-876503D01*
X2058670Y-884478D01*
X2072843Y-890574D01*
X2076297Y-893013D01*
X2078431Y-896670D01*
X2078939Y-900836D01*
X2077669Y-904900D01*
X2074875Y-908050D01*
X2070912Y-910996D01*
X2059330Y-921969D01*
X2049068Y-934161D01*
X2040331Y-947470D01*
X2033168Y-961745D01*
X2027732Y-976680D01*
X2024024Y-992225D01*
X2022195Y-1008024D01*
X2022195Y-1023975D01*
X2024024Y-1039774D01*
X2027732Y-1055319D01*
X2033168Y-1070254D01*
X2040331Y-1084529D01*
X2049068Y-1097838D01*
X2059330Y-1110030D01*
X2070912Y-1121003D01*
X2083714Y-1130503D01*
X2090115Y-1134211D01*
X2093264Y-1137005D01*
X2094992Y-1140866D01*
X2094992Y-1145133D01*
X2093264Y-1148994D01*
X2090115Y-1151788D01*
X2083714Y-1155496D01*
X2070912Y-1164996D01*
X2059330Y-1175969D01*
X2049068Y-1188161D01*
X2040331Y-1201470D01*
X2033168Y-1215745D01*
X2027732Y-1230680D01*
X2024024Y-1246225D01*
X2022195Y-1262024D01*
X2022195Y-1277975D01*
X2024024Y-1293774D01*
X2027732Y-1309319D01*
X2033168Y-1324254D01*
X2040331Y-1338529D01*
X2049068Y-1351838D01*
X2059330Y-1364030D01*
X2070912Y-1375003D01*
X2083714Y-1384503D01*
X2090115Y-1388211D01*
X2093264Y-1391005D01*
X2094992Y-1394866D01*
X2094992Y-1399133D01*
X2093264Y-1402994D01*
X2090115Y-1405788D01*
X2083714Y-1409496D01*
X2070912Y-1418996D01*
X2059330Y-1429969D01*
X2049068Y-1442161D01*
X2040331Y-1455470D01*
X2033168Y-1469745D01*
X2027732Y-1484680D01*
X2024024Y-1500225D01*
X2022195Y-1516024D01*
X2022195Y-1531975D01*
X2024024Y-1547774D01*
X2027732Y-1563319D01*
X2033168Y-1578254D01*
X2040331Y-1592529D01*
X2049068Y-1605838D01*
X2059330Y-1618030D01*
X2070912Y-1629003D01*
X2083714Y-1638503D01*
X2090115Y-1642211D01*
X2093264Y-1645005D01*
X2094992Y-1648866D01*
X2094992Y-1653133D01*
X2093264Y-1656994D01*
X2090115Y-1659788D01*
X2083714Y-1663496D01*
X2070912Y-1672996D01*
X2059330Y-1683969D01*
X2049068Y-1696161D01*
X2040331Y-1709470D01*
X2033168Y-1723745D01*
X2029104Y-1734870D01*
X2027021Y-1738274D01*
X2023770Y-1740662D01*
X2019807Y-1741525D01*
X2015845Y-1740814D01*
X2012492Y-1738630D01*
X2010206Y-1735328D01*
X2009393Y-1731365D01*
X2009393Y-1715007D01*
X2008581Y-1706524D01*
X2006244Y-1698853D01*
X2002485Y-1691792D01*
X1997049Y-1685239D01*
X1904288Y-1592427D01*
X1902053Y-1589074D01*
X1901291Y-1585163D01*
X1902155Y-1581251D01*
X1906625Y-1570837D01*
X1911197Y-1555546D01*
X1913940Y-1539900D01*
X1914906Y-1524000D01*
X1913940Y-1508099D01*
X1911197Y-1492453D01*
X1906625Y-1477162D01*
X1900326Y-1462582D01*
X1892350Y-1448765D01*
X1882851Y-1436014D01*
X1871929Y-1424432D01*
X1859737Y-1414221D01*
X1846529Y-1405483D01*
X1843684Y-1402689D01*
X1842109Y-1398981D01*
X1842109Y-1395018D01*
X1843684Y-1391310D01*
X1846529Y-1388516D01*
X1859737Y-1379778D01*
X1871929Y-1369568D01*
X1882851Y-1357985D01*
X1892350Y-1345234D01*
X1900326Y-1331417D01*
X1906625Y-1316837D01*
X1911197Y-1301546D01*
X1913940Y-1285900D01*
X1914906Y-1270000D01*
X1913940Y-1254099D01*
X1911197Y-1238453D01*
X1906625Y-1223162D01*
X1900326Y-1208582D01*
X1892350Y-1194765D01*
X1882851Y-1182014D01*
X1871929Y-1170432D01*
X1859737Y-1160221D01*
X1846529Y-1151483D01*
X1843684Y-1148689D01*
X1842109Y-1144981D01*
X1842109Y-1141018D01*
X1843684Y-1137310D01*
X1846529Y-1134516D01*
X1859737Y-1125778D01*
X1871929Y-1115568D01*
X1882851Y-1103985D01*
X1892350Y-1091234D01*
X1900326Y-1077417D01*
X1906625Y-1062837D01*
X1911197Y-1047546D01*
X1913940Y-1031900D01*
X1914906Y-1016000D01*
X1913940Y-1000099D01*
X1911197Y-984453D01*
X1906625Y-969162D01*
X1900326Y-954582D01*
X1892350Y-940765D01*
X1882851Y-928014D01*
X1871929Y-916432D01*
X1859737Y-906221D01*
X1846529Y-897483D01*
X1843684Y-894689D01*
X1842109Y-890981D01*
X1842109Y-887018D01*
X1843684Y-883310D01*
X1846529Y-880516D01*
X1859737Y-871778D01*
X1871929Y-861568D01*
X1882851Y-849985D01*
X1892350Y-837234D01*
X1900326Y-823417D01*
X1906625Y-808837D01*
X1911197Y-793546D01*
X1913940Y-777900D01*
X1914906Y-762000D01*
X1913940Y-746099D01*
X1911197Y-730453D01*
X1906625Y-715162D01*
X1900326Y-700582D01*
X1892350Y-686765D01*
X1882851Y-674014D01*
X1871929Y-662432D01*
X1859737Y-652221D01*
X1846529Y-643483D01*
X1843684Y-640689D01*
X1842109Y-636981D01*
X1842109Y-633018D01*
X1843684Y-629310D01*
X1846529Y-626516D01*
X1859737Y-617778D01*
X1871929Y-607568D01*
X1882851Y-595985D01*
X1892350Y-583234D01*
X1900326Y-569417D01*
X1906625Y-554837D01*
X1911197Y-539546D01*
X1914906Y-518769D01*
X1916988Y-515721D01*
X2058670Y-374091D01*
X2061972Y-371906D01*
X2065832Y-371094D01*
X2760167Y-371094D01*
X2764028Y-371906D01*
X2767330Y-374091D01*
X2902508Y-509270D01*
X2904744Y-512572D01*
X2905506Y-516432D01*
X2905506Y-2683967D01*
X2904744Y-2687828D01*
X2902508Y-2691130D01*
X2757982Y-2835656D01*
X2754934Y-2837738D01*
X2751277Y-2838602D01*
X2747619Y-2838094D01*
X2744317Y-2836316D01*
X2734462Y-2828137D01*
X2722321Y-2820416D01*
X2709265Y-2814269D01*
X2695549Y-2809798D01*
X2681376Y-2807106D01*
X2667000Y-2806192D01*
X2652623Y-2807106D01*
X2638450Y-2809798D01*
X2624734Y-2814269D01*
X2611678Y-2820416D01*
X2599537Y-2828137D01*
X2588412Y-2837332D01*
X2578557Y-2847848D01*
X2570073Y-2859481D01*
X2563114Y-2872130D01*
X2557830Y-2885541D01*
X2554224Y-2899511D01*
X2552446Y-2913786D01*
X2552446Y-2928213D01*
X2554224Y-2942488D01*
X2557830Y-2956458D01*
X2563114Y-2969869D01*
X2570073Y-2982518D01*
X2578557Y-2994152D01*
X2588412Y-3004667D01*
X2599537Y-3013862D01*
X2611678Y-3021584D01*
X2624734Y-3027730D01*
X2638450Y-3032201D01*
X2652623Y-3034893D01*
X2667000Y-3035808D01*
X2681376Y-3034893D01*
X2695549Y-3032201D01*
X2709265Y-3027730D01*
X2722321Y-3021584D01*
X2734462Y-3013862D01*
X2745587Y-3004667D01*
X2755442Y-2994152D01*
X2763926Y-2982518D01*
X2770886Y-2969869D01*
X2776169Y-2956458D01*
X2779776Y-2942488D01*
X2781198Y-2931160D01*
X2782163Y-2928010D01*
X2784094Y-2925267D01*
X2974949Y-2734360D01*
X2980385Y-2727807D01*
X2984144Y-2720746D01*
X2986481Y-2713075D01*
X2987294Y-2704592D01*
X2987294Y-495808D01*
X2986481Y-487324D01*
X2984144Y-479653D01*
X2980385Y-472592D01*
X2974949Y-466039D01*
X2810560Y-301650D01*
X2804007Y-296214D01*
X2796946Y-292455D01*
X2789275Y-290118D01*
X2780792Y-289306D01*
X2045207Y-289306D01*
X2036724Y-290118D01*
X2029053Y-292455D01*
X2021992Y-296214D01*
X2015439Y-301650D01*
X1897125Y-419912D01*
X1893773Y-422148D01*
X1889810Y-422859D01*
X1885848Y-422046D01*
X1882546Y-419709D01*
X1871929Y-408432D01*
X1859737Y-398221D01*
X1846529Y-389483D01*
X1843684Y-386689D01*
X1842109Y-382981D01*
X1842109Y-379018D01*
X1843684Y-375310D01*
X1846529Y-372516D01*
X1859737Y-363778D01*
X1871929Y-353568D01*
X1882851Y-341985D01*
X1892350Y-329234D01*
X1900326Y-315417D01*
X1906625Y-300837D01*
X1911197Y-285546D01*
X1913940Y-269900D01*
X1914906Y-254000D01*
X1913940Y-238099D01*
X1911197Y-222453D01*
X1906625Y-207162D01*
X1900326Y-192582D01*
X1892350Y-178765D01*
X1882851Y-166014D01*
X1871929Y-154432D01*
X1859737Y-144221D01*
X1846427Y-135432D01*
X1832203Y-128320D01*
X1817268Y-122885D01*
X1801774Y-119176D01*
X1785975Y-117348D01*
X1770024Y-117348D01*
X1754225Y-119176D01*
X1738731Y-122885D01*
X1723796Y-128320D01*
X1709572Y-135432D01*
X1696262Y-144221D01*
X1684070Y-154432D01*
X1673148Y-166014D01*
X1663649Y-178765D01*
X1655673Y-192582D01*
X1649374Y-207162D01*
X1644802Y-222453D01*
X1642059Y-238099D01*
X1641093Y-254000D01*
X1642059Y-269900D01*
X1644802Y-285546D01*
X1649374Y-300837D01*
X1655673Y-315417D01*
X1663649Y-329234D01*
X1673148Y-341985D01*
X1684070Y-353568D01*
X1696262Y-363778D01*
X1709470Y-372516D01*
X1712315Y-375310D01*
X1713890Y-379018D01*
X1713890Y-382981D01*
X1712315Y-386689D01*
X1709470Y-389483D01*
X1696262Y-398221D01*
X1684070Y-408432D01*
X1673148Y-420014D01*
X1663649Y-432765D01*
X1655673Y-446582D01*
X1649374Y-461162D01*
X1644802Y-476453D01*
X1642059Y-492099D01*
X1641093Y-508000D01*
X1642059Y-523900D01*
X1644802Y-539546D01*
X1649374Y-554837D01*
X1655673Y-569417D01*
X1663649Y-583234D01*
X1673148Y-595985D01*
X1684070Y-607568D01*
X1696262Y-617778D01*
X1709470Y-626516D01*
X1712315Y-629310D01*
X1713890Y-633018D01*
X1713890Y-636981D01*
X1712315Y-640689D01*
X1709470Y-643483D01*
X1696262Y-652221D01*
X1684070Y-662432D01*
X1673148Y-674014D01*
X1663649Y-686765D01*
X1655673Y-700582D01*
X1649374Y-715162D01*
X1644802Y-730453D01*
X1642059Y-746099D01*
X1641093Y-762000D01*
X1642059Y-777900D01*
X1644802Y-793546D01*
X1649374Y-808837D01*
X1655673Y-823417D01*
X1663649Y-837234D01*
X1673148Y-849985D01*
X1684070Y-861568D01*
X1696262Y-871778D01*
X1709470Y-880516D01*
X1712315Y-883310D01*
X1713890Y-887018D01*
X1713890Y-890981D01*
X1712315Y-894689D01*
X1709470Y-897483D01*
X1696262Y-906221D01*
X1684070Y-916432D01*
X1673148Y-928014D01*
X1663649Y-940765D01*
X1655673Y-954582D01*
X1649374Y-969162D01*
X1644802Y-984453D01*
X1642059Y-1000099D01*
X1641093Y-1016000D01*
X1642059Y-1031900D01*
X1644802Y-1047546D01*
X1649374Y-1062837D01*
X1655673Y-1077417D01*
X1663649Y-1091234D01*
X1673148Y-1103985D01*
X1684070Y-1115568D01*
X1696262Y-1125778D01*
X1709470Y-1134516D01*
X1712315Y-1137310D01*
X1713890Y-1141018D01*
X1713890Y-1144981D01*
X1712315Y-1148689D01*
X1709470Y-1151483D01*
X1696262Y-1160221D01*
X1684070Y-1170432D01*
X1673148Y-1182014D01*
X1663649Y-1194765D01*
X1655673Y-1208582D01*
X1649374Y-1223162D01*
X1644802Y-1238453D01*
X1642059Y-1254099D01*
X1641093Y-1270000D01*
X1642059Y-1285900D01*
X1644802Y-1301546D01*
X1649374Y-1316837D01*
X1655673Y-1331417D01*
X1663649Y-1345234D01*
X1673148Y-1357985D01*
X1684070Y-1369568D01*
X1696262Y-1379778D01*
X1709470Y-1388516D01*
X1712315Y-1391310D01*
X1713890Y-1395018D01*
X1713890Y-1398981D01*
X1712315Y-1402689D01*
X1709470Y-1405483D01*
X1696262Y-1414221D01*
X1684070Y-1424432D01*
X1673148Y-1436014D01*
X1663649Y-1448765D01*
X1655673Y-1462582D01*
X1649374Y-1477162D01*
X1644802Y-1492453D01*
X1642059Y-1508099D01*
X1641093Y-1524000D01*
X1642059Y-1539900D01*
X1644802Y-1555546D01*
X1649374Y-1570837D01*
X1655673Y-1585417D01*
X1663649Y-1599234D01*
X1673148Y-1611985D01*
X1684070Y-1623568D01*
X1696262Y-1633778D01*
X1709470Y-1642516D01*
X1712315Y-1645310D01*
X1713890Y-1649018D01*
X1713890Y-1652981D01*
X1712315Y-1656689D01*
X1709470Y-1659483D01*
X1696262Y-1668221D01*
X1684070Y-1678432D01*
X1673148Y-1690014D01*
X1663649Y-1702765D01*
X1655673Y-1716582D01*
X1649374Y-1731162D01*
X1644802Y-1746453D01*
X1642059Y-1762099D01*
X1641093Y-1778000D01*
X1642059Y-1793900D01*
X1644802Y-1809546D01*
X1649374Y-1824837D01*
X1655673Y-1839417D01*
X1663649Y-1853234D01*
X1673148Y-1865985D01*
X1684070Y-1877568D01*
X1696262Y-1887778D01*
X1709470Y-1896516D01*
X1712315Y-1899310D01*
X1713890Y-1903018D01*
X1713890Y-1906981D01*
X1712315Y-1910689D01*
X1709470Y-1913483D01*
X1696262Y-1922221D01*
X1684070Y-1932432D01*
X1673148Y-1944014D01*
X1663649Y-1956765D01*
X1655673Y-1970582D01*
X1649374Y-1985162D01*
X1644802Y-2000453D01*
X1642059Y-2016099D01*
X1641093Y-2032000D01*
X1642059Y-2047900D01*
X1644802Y-2063546D01*
X1649374Y-2078837D01*
X1655673Y-2093417D01*
X1663649Y-2107234D01*
X1673148Y-2119985D01*
X1684070Y-2131568D01*
X1696262Y-2141778D01*
X1709470Y-2150516D01*
X1712315Y-2153310D01*
X1713890Y-2157018D01*
X1713890Y-2160981D01*
X1712315Y-2164689D01*
X1709470Y-2167483D01*
X1696262Y-2176221D01*
X1684070Y-2186432D01*
X1673148Y-2198014D01*
X1663649Y-2210765D01*
X1655673Y-2224582D01*
X1649374Y-2239162D01*
X1644802Y-2254453D01*
X1642059Y-2270099D01*
X1641093Y-2286000D01*
X1642059Y-2301900D01*
X1644802Y-2317546D01*
X1649374Y-2332837D01*
X1655673Y-2347417D01*
X1663649Y-2361234D01*
X1673148Y-2373985D01*
X1684070Y-2385568D01*
X1696262Y-2395778D01*
X1709470Y-2404516D01*
X1712315Y-2407310D01*
X1713890Y-2411018D01*
X1713890Y-2414981D01*
X1712315Y-2418689D01*
X1709470Y-2421483D01*
X1696262Y-2430221D01*
X1684070Y-2440432D01*
X1673148Y-2452014D01*
X1663649Y-2464765D01*
X1655673Y-2478582D01*
X1649374Y-2493162D01*
X1644802Y-2508453D01*
X1642059Y-2524099D01*
X1641093Y-2540000D01*
X1642059Y-2555900D01*
X1644802Y-2571546D01*
X1649374Y-2586837D01*
X1655673Y-2601417D01*
X1663649Y-2615234D01*
X1673148Y-2627985D01*
X1684070Y-2639568D01*
X1696262Y-2649778D01*
X1709470Y-2658516D01*
X1712315Y-2661310D01*
X1713890Y-2665018D01*
X1713890Y-2668981D01*
X1712315Y-2672689D01*
X1709470Y-2675483D01*
X1696262Y-2684221D01*
X1684070Y-2694432D01*
X1673148Y-2706014D01*
X1663649Y-2718765D01*
X1655673Y-2732582D01*
X1649374Y-2747162D01*
X1644802Y-2762453D01*
X1642059Y-2778099D01*
X1641093Y-2794000D01*
X1642059Y-2809900D01*
X1644802Y-2825546D01*
X1649374Y-2840837D01*
X1655673Y-2855417D01*
X1663649Y-2869234D01*
X1673148Y-2881985D01*
X1684070Y-2893568D01*
X1696262Y-2903778D01*
X1709470Y-2912516D01*
X1712315Y-2915310D01*
X1713890Y-2919018D01*
X1713890Y-2922981D01*
X1712315Y-2926689D01*
X1709470Y-2929483D01*
X1696262Y-2938221D01*
X1684070Y-2948432D01*
X1673148Y-2960014D01*
X1663649Y-2972765D01*
X1655673Y-2986582D01*
X1649374Y-3001162D01*
X1644802Y-3016453D01*
X1642059Y-3032099D01*
X1641093Y-3048000D01*
X1642059Y-3063900D01*
X1644802Y-3079546D01*
X1649374Y-3094837D01*
X1655673Y-3109417D01*
X1663649Y-3123234D01*
X1673148Y-3135985D01*
X1684070Y-3147568D01*
X1696262Y-3157778D01*
X1709470Y-3166516D01*
X1712315Y-3169310D01*
X1713890Y-3173018D01*
X1713890Y-3176981D01*
X1712315Y-3180689D01*
X1709470Y-3183483D01*
X1696262Y-3192221D01*
X1684070Y-3202432D01*
X1673148Y-3214014D01*
X1663649Y-3226765D01*
X1655673Y-3240582D01*
X1649374Y-3255162D01*
X1644802Y-3270453D01*
X1642059Y-3286099D01*
X1641093Y-3302000D01*
X1642059Y-3317900D01*
X1644802Y-3333546D01*
X1649374Y-3348837D01*
X1655673Y-3363417D01*
X1663649Y-3377234D01*
X1673148Y-3389985D01*
X1684070Y-3401568D01*
X1696262Y-3411778D01*
X1709470Y-3420516D01*
X1712315Y-3423310D01*
X1713890Y-3427018D01*
X1713890Y-3430981D01*
X1712315Y-3434689D01*
X1709470Y-3437483D01*
X1696262Y-3446221D01*
X1684070Y-3456432D01*
X1673148Y-3468014D01*
X1663649Y-3480765D01*
X1655673Y-3494582D01*
X1649374Y-3509162D01*
X1644802Y-3524453D01*
X1642059Y-3540099D01*
X1641093Y-3556000D01*
X1642059Y-3571900D01*
X1644802Y-3587546D01*
X1649374Y-3602837D01*
X1655673Y-3617417D01*
X1663649Y-3631234D01*
X1673148Y-3643985D01*
X1684070Y-3655568D01*
X1696262Y-3665778D01*
X1709572Y-3674567D01*
X1723796Y-3681679D01*
X1738731Y-3687114D01*
X1754225Y-3690823D01*
X1770024Y-3692651D01*
X1785975Y-3692651D01*
X1801774Y-3690823D01*
X1817268Y-3687114D01*
X1832203Y-3681679D01*
X1846427Y-3674567D01*
X1859737Y-3665778D01*
X1871929Y-3655568D01*
X1882851Y-3643985D01*
X1892350Y-3631234D01*
X1900326Y-3617417D01*
X1906625Y-3602837D01*
X1911197Y-3587546D01*
X1913940Y-3571900D01*
X1914906Y-3556000D01*
X1913940Y-3540099D01*
X1911197Y-3524453D01*
X1906625Y-3509162D01*
X1900326Y-3494582D01*
X1892350Y-3480765D01*
X1882851Y-3468014D01*
X1871929Y-3456432D01*
X1859737Y-3446221D01*
X1846529Y-3437483D01*
X1843684Y-3434689D01*
X1842109Y-3430981D01*
X1842109Y-3427018D01*
X1843684Y-3423310D01*
X1846529Y-3420516D01*
X1859737Y-3411778D01*
X1871929Y-3401568D01*
X1882851Y-3389985D01*
X1892350Y-3377234D01*
X1900326Y-3363417D01*
X1906625Y-3348837D01*
X1911197Y-3333546D01*
X1913940Y-3317900D01*
X1914906Y-3302000D01*
X1913940Y-3286099D01*
X1911197Y-3270453D01*
X1906625Y-3255162D01*
X1900326Y-3240582D01*
X1892350Y-3226765D01*
X1882851Y-3214014D01*
X1871929Y-3202432D01*
X1859737Y-3192221D01*
X1846529Y-3183483D01*
X1843684Y-3180689D01*
X1842109Y-3176981D01*
X1842109Y-3173018D01*
X1843684Y-3169310D01*
X1846529Y-3166516D01*
X1859737Y-3157778D01*
X1871929Y-3147568D01*
X1882851Y-3135985D01*
X1892350Y-3123234D01*
X1900326Y-3109417D01*
X1906625Y-3094837D01*
X1911197Y-3079546D01*
X1913940Y-3063900D01*
X1914906Y-3048000D01*
X1913940Y-3032099D01*
X1911197Y-3016453D01*
X1906625Y-3001162D01*
X1900326Y-2986582D01*
X1892350Y-2972765D01*
X1882851Y-2960014D01*
X1871929Y-2948432D01*
X1859737Y-2938221D01*
X1846529Y-2929483D01*
X1843684Y-2926689D01*
X1842109Y-2922981D01*
X1842109Y-2919018D01*
X1843684Y-2915310D01*
X1846529Y-2912516D01*
X1859737Y-2903778D01*
X1871929Y-2893568D01*
X1882851Y-2881985D01*
X1892350Y-2869234D01*
X1900326Y-2855417D01*
X1906625Y-2840837D01*
X1911197Y-2825546D01*
X1913940Y-2809900D01*
X1914906Y-2794000D01*
X1913940Y-2778099D01*
X1911197Y-2762453D01*
X1906625Y-2747162D01*
X1900326Y-2732582D01*
X1892350Y-2718765D01*
X1882851Y-2706014D01*
X1871929Y-2694432D01*
X1859737Y-2684221D01*
X1846529Y-2675483D01*
X1843684Y-2672689D01*
X1842109Y-2668981D01*
X1842109Y-2665018D01*
X1843684Y-2661310D01*
X1846529Y-2658516D01*
X1859737Y-2649778D01*
X1871929Y-2639568D01*
X1882851Y-2627985D01*
X1892350Y-2615234D01*
X1900326Y-2601417D01*
X1906625Y-2586837D01*
X1911197Y-2571546D01*
X1913940Y-2555900D01*
X1914906Y-2540000D01*
X1913940Y-2524099D01*
X1911197Y-2508453D01*
X1906625Y-2493162D01*
X1900326Y-2478582D01*
X1892350Y-2464765D01*
X1882851Y-2452014D01*
X1871929Y-2440432D01*
X1859737Y-2430221D01*
X1846529Y-2421483D01*
X1843684Y-2418689D01*
X1842109Y-2414981D01*
X1842109Y-2411018D01*
X1843684Y-2407310D01*
X1846529Y-2404516D01*
X1859737Y-2395778D01*
X1871929Y-2385568D01*
X1882851Y-2373985D01*
X1892350Y-2361234D01*
X1900326Y-2347417D01*
X1906625Y-2332837D01*
X1911197Y-2317546D01*
X1913940Y-2301900D01*
X1914906Y-2286000D01*
X1913940Y-2270099D01*
X1911197Y-2254453D01*
X1906625Y-2239162D01*
X1900326Y-2224582D01*
X1892350Y-2210765D01*
X1882851Y-2198014D01*
X1871929Y-2186432D01*
X1859737Y-2176221D01*
X1846529Y-2167483D01*
X1843684Y-2164689D01*
X1842109Y-2160981D01*
X1842109Y-2157018D01*
X1843684Y-2153310D01*
X1846529Y-2150516D01*
X1859737Y-2141778D01*
X1871929Y-2131568D01*
X1882851Y-2119985D01*
X1892350Y-2107234D01*
X1900326Y-2093417D01*
X1906625Y-2078837D01*
X1907692Y-2075281D01*
X1909673Y-2071624D01*
X1912874Y-2069084D01*
X1916836Y-2068017D01*
X1920900Y-2068626D01*
X1924405Y-2070811D01*
X1926742Y-2074164D01*
X1927606Y-2078177D01*
X1927606Y-2133092D01*
X1928418Y-2141575D01*
X1930755Y-2149246D01*
X1934514Y-2156307D01*
X1939950Y-2162860D01*
X2022957Y-2245918D01*
X2024938Y-2248712D01*
X2025853Y-2252014D01*
X2025650Y-2255418D01*
X2024024Y-2262225D01*
X2022195Y-2278024D01*
X2022195Y-2293975D01*
X2024024Y-2309774D01*
X2027732Y-2325319D01*
X2033168Y-2340254D01*
X2040331Y-2354529D01*
X2049068Y-2367838D01*
X2059330Y-2380030D01*
X2070912Y-2391003D01*
X2083714Y-2400503D01*
X2090115Y-2404211D01*
X2093264Y-2407005D01*
X2094992Y-2410866D01*
X2094992Y-2415133D01*
X2093264Y-2418994D01*
X2090115Y-2421788D01*
X2083714Y-2425496D01*
X2070912Y-2434996D01*
X2059330Y-2445969D01*
X2049068Y-2458161D01*
X2040331Y-2471470D01*
X2033168Y-2485745D01*
X2027732Y-2500680D01*
X2024024Y-2516225D01*
X2022195Y-2532024D01*
X2022195Y-2547975D01*
X2024024Y-2563774D01*
X2027732Y-2579319D01*
X2033168Y-2594254D01*
X2040331Y-2608529D01*
X2049068Y-2621838D01*
X2059330Y-2634030D01*
X2070912Y-2645003D01*
X2083714Y-2654503D01*
X2090115Y-2658211D01*
X2093264Y-2661005D01*
X2094992Y-2664866D01*
X2094992Y-2669133D01*
X2093264Y-2672994D01*
X2090115Y-2675788D01*
X2083714Y-2679496D01*
X2070912Y-2688996D01*
X2059330Y-2699969D01*
X2049068Y-2712161D01*
X2040331Y-2725470D01*
X2033168Y-2739745D01*
X2027732Y-2754680D01*
X2024024Y-2770225D01*
X2022195Y-2786024D01*
X2022195Y-2801975D01*
X2024024Y-2817774D01*
X2027732Y-2833319D01*
X2033168Y-2848254D01*
X2040331Y-2862529D01*
X2049068Y-2875838D01*
X2059330Y-2888030D01*
X2070912Y-2899003D01*
X2083714Y-2908503D01*
X2090115Y-2912211D01*
X2093264Y-2915005D01*
X2094992Y-2918866D01*
X2094992Y-2923133D01*
X2093264Y-2926994D01*
X2090115Y-2929788D01*
X2083714Y-2933496D01*
X2070912Y-2942996D01*
X2059330Y-2953969D01*
X2049068Y-2966161D01*
X2040331Y-2979470D01*
X2033168Y-2993745D01*
X2027732Y-3008680D01*
X2024024Y-3024225D01*
X2022195Y-3040024D01*
X2022195Y-3055975D01*
X2024024Y-3071774D01*
X2027732Y-3087319D01*
X2033168Y-3102254D01*
X2040331Y-3116529D01*
X2049068Y-3129838D01*
X2059330Y-3142030D01*
X2070912Y-3153003D01*
X2083714Y-3162503D01*
X2090115Y-3166211D01*
X2093264Y-3169005D01*
X2094992Y-3172866D01*
X2094992Y-3177133D01*
X2093264Y-3180994D01*
X2090115Y-3183788D01*
X2083714Y-3187496D01*
X2070912Y-3196996D01*
X2059330Y-3207969D01*
X2049068Y-3220161D01*
X2040331Y-3233470D01*
X2033168Y-3247745D01*
X2027732Y-3262680D01*
X2024024Y-3278225D01*
X2022195Y-3294024D01*
X2022195Y-3309975D01*
X2024024Y-3325774D01*
X2027732Y-3341319D01*
X2033168Y-3356254D01*
X2040331Y-3370529D01*
X2049068Y-3383838D01*
X2059330Y-3396030D01*
X2070912Y-3407003D01*
X2083714Y-3416503D01*
X2090115Y-3420211D01*
X2093264Y-3423005D01*
X2094992Y-3426866D01*
X2094992Y-3431133D01*
X2093264Y-3434994D01*
X2090115Y-3437788D01*
X2083714Y-3441496D01*
X2070912Y-3450996D01*
X2059330Y-3461969D01*
X2049068Y-3474161D01*
X2040331Y-3487470D01*
X2033168Y-3501745D01*
X2027732Y-3516680D01*
X2024024Y-3532225D01*
X2022195Y-3548024D01*
X2022195Y-3563975D01*
X2024024Y-3579774D01*
X2027732Y-3595319D01*
X2033168Y-3610254D01*
X2040331Y-3624529D01*
X2049068Y-3637838D01*
X2059330Y-3650030D01*
X2070912Y-3661003D01*
X2083714Y-3670503D01*
X2097481Y-3678478D01*
X2112111Y-3684778D01*
X2127402Y-3689350D01*
X2143099Y-3692093D01*
G37*
G36*
X315874Y-3692906D02*
G01*
X364439Y-3692906D01*
X370738Y-3692194D01*
X376224Y-3690264D01*
X381101Y-3687216D01*
X385216Y-3683101D01*
X388264Y-3678224D01*
X390194Y-3672738D01*
X390906Y-3666439D01*
X390906Y-3617874D01*
X315874Y-3617874D01*
G37*
G36*
X143560Y-3692906D02*
G01*
X192125Y-3692906D01*
X192125Y-3617874D01*
X117094Y-3617874D01*
X117094Y-3666439D01*
X117805Y-3672738D01*
X119735Y-3678224D01*
X122783Y-3683101D01*
X126898Y-3687216D01*
X131775Y-3690264D01*
X137261Y-3692194D01*
G37*
G36*
X2667000Y-3543808D02*
G01*
X2681376Y-3542893D01*
X2695549Y-3540201D01*
X2709265Y-3535730D01*
X2722321Y-3529584D01*
X2734462Y-3521862D01*
X2745587Y-3512667D01*
X2755442Y-3502151D01*
X2763926Y-3490518D01*
X2770886Y-3477869D01*
X2776169Y-3464458D01*
X2779776Y-3450488D01*
X2781554Y-3436213D01*
X2781554Y-3421786D01*
X2779776Y-3407511D01*
X2776169Y-3393541D01*
X2770886Y-3380130D01*
X2763926Y-3367481D01*
X2755442Y-3355848D01*
X2745587Y-3345332D01*
X2734462Y-3336137D01*
X2722321Y-3328415D01*
X2709265Y-3322269D01*
X2695549Y-3317798D01*
X2681376Y-3315106D01*
X2667000Y-3314192D01*
X2652623Y-3315106D01*
X2638450Y-3317798D01*
X2624734Y-3322269D01*
X2611678Y-3328415D01*
X2599537Y-3336137D01*
X2588412Y-3345332D01*
X2578557Y-3355848D01*
X2570073Y-3367481D01*
X2563114Y-3380130D01*
X2557830Y-3393541D01*
X2554224Y-3407511D01*
X2552446Y-3421786D01*
X2552446Y-3436213D01*
X2554224Y-3450488D01*
X2557830Y-3464458D01*
X2563114Y-3477869D01*
X2570073Y-3490518D01*
X2578557Y-3502151D01*
X2588412Y-3512667D01*
X2599537Y-3521862D01*
X2611678Y-3529584D01*
X2624734Y-3535730D01*
X2638450Y-3540201D01*
X2652623Y-3542893D01*
G37*
G36*
X117094Y-3494125D02*
G01*
X192125Y-3494125D01*
X192125Y-3439414D01*
X192887Y-3435604D01*
X195021Y-3432352D01*
X198170Y-3430168D01*
X201980Y-3429254D01*
X205790Y-3429863D01*
X214731Y-3433114D01*
X230225Y-3436823D01*
X246024Y-3438651D01*
X261975Y-3438651D01*
X277774Y-3436823D01*
X293268Y-3433114D01*
X302209Y-3429863D01*
X306019Y-3429254D01*
X309829Y-3430168D01*
X312978Y-3432352D01*
X315112Y-3435604D01*
X315874Y-3439414D01*
X315874Y-3494125D01*
X390906Y-3494125D01*
X390906Y-3445560D01*
X390194Y-3439261D01*
X388264Y-3433775D01*
X385216Y-3428898D01*
X381101Y-3424783D01*
X376224Y-3421735D01*
X370738Y-3419805D01*
X364439Y-3419094D01*
X354939Y-3419094D01*
X351129Y-3418332D01*
X347827Y-3416198D01*
X345643Y-3412947D01*
X344779Y-3409137D01*
X345490Y-3405276D01*
X347573Y-3401974D01*
X358851Y-3389985D01*
X368350Y-3377234D01*
X376326Y-3363417D01*
X382625Y-3348837D01*
X387197Y-3333546D01*
X389940Y-3317900D01*
X390906Y-3302000D01*
X389940Y-3286099D01*
X387197Y-3270453D01*
X382625Y-3255162D01*
X376326Y-3240582D01*
X368350Y-3226765D01*
X358851Y-3214014D01*
X347929Y-3202432D01*
X335737Y-3192221D01*
X322529Y-3183483D01*
X319684Y-3180689D01*
X318109Y-3176981D01*
X318109Y-3173018D01*
X319684Y-3169310D01*
X322529Y-3166516D01*
X335737Y-3157778D01*
X347929Y-3147568D01*
X358851Y-3135985D01*
X368350Y-3123234D01*
X376326Y-3109417D01*
X382625Y-3094837D01*
X387197Y-3079546D01*
X389940Y-3063900D01*
X390906Y-3048000D01*
X389940Y-3032099D01*
X387197Y-3016453D01*
X382625Y-3001162D01*
X376326Y-2986582D01*
X368350Y-2972765D01*
X358851Y-2960014D01*
X347929Y-2948432D01*
X335737Y-2938221D01*
X322529Y-2929483D01*
X319684Y-2926689D01*
X318109Y-2922981D01*
X318109Y-2919018D01*
X319684Y-2915310D01*
X322529Y-2912516D01*
X335737Y-2903778D01*
X347929Y-2893568D01*
X358851Y-2881985D01*
X368350Y-2869234D01*
X376326Y-2855417D01*
X382625Y-2840837D01*
X387197Y-2825546D01*
X389940Y-2809900D01*
X390906Y-2794000D01*
X389940Y-2778099D01*
X387197Y-2762453D01*
X382625Y-2747162D01*
X376326Y-2732582D01*
X368350Y-2718765D01*
X358851Y-2706014D01*
X347929Y-2694432D01*
X335737Y-2684221D01*
X322529Y-2675483D01*
X319684Y-2672689D01*
X318109Y-2668981D01*
X318109Y-2665018D01*
X319684Y-2661310D01*
X322529Y-2658516D01*
X335737Y-2649778D01*
X347929Y-2639568D01*
X358851Y-2627985D01*
X368350Y-2615234D01*
X376326Y-2601417D01*
X382625Y-2586837D01*
X387197Y-2571546D01*
X389940Y-2555900D01*
X390906Y-2540000D01*
X389940Y-2524099D01*
X387197Y-2508453D01*
X382625Y-2493162D01*
X376326Y-2478582D01*
X368350Y-2464765D01*
X358851Y-2452014D01*
X347929Y-2440432D01*
X335737Y-2430221D01*
X322529Y-2421483D01*
X319684Y-2418689D01*
X318109Y-2414981D01*
X318109Y-2411018D01*
X319684Y-2407310D01*
X322529Y-2404516D01*
X335737Y-2395778D01*
X347929Y-2385568D01*
X358851Y-2373985D01*
X368350Y-2361234D01*
X376326Y-2347417D01*
X382625Y-2332837D01*
X387197Y-2317546D01*
X389940Y-2301900D01*
X390906Y-2286000D01*
X389940Y-2270099D01*
X387197Y-2254453D01*
X382625Y-2239162D01*
X376326Y-2224582D01*
X368350Y-2210765D01*
X358851Y-2198014D01*
X347929Y-2186432D01*
X335737Y-2176221D01*
X322529Y-2167483D01*
X319684Y-2164689D01*
X318109Y-2160981D01*
X318109Y-2157018D01*
X319684Y-2153310D01*
X322529Y-2150516D01*
X335737Y-2141778D01*
X347929Y-2131568D01*
X358851Y-2119985D01*
X368350Y-2107234D01*
X376326Y-2093417D01*
X382625Y-2078837D01*
X387197Y-2063546D01*
X389940Y-2047900D01*
X390906Y-2032000D01*
X389940Y-2016099D01*
X387197Y-2000453D01*
X382625Y-1985162D01*
X376326Y-1970582D01*
X368350Y-1956765D01*
X358851Y-1944014D01*
X347929Y-1932432D01*
X335737Y-1922221D01*
X322529Y-1913483D01*
X319684Y-1910689D01*
X318109Y-1906981D01*
X318109Y-1903018D01*
X319684Y-1899310D01*
X322529Y-1896516D01*
X335737Y-1887778D01*
X347929Y-1877568D01*
X358851Y-1865985D01*
X368350Y-1853234D01*
X376326Y-1839417D01*
X382625Y-1824837D01*
X387197Y-1809546D01*
X389940Y-1793900D01*
X390906Y-1778000D01*
X389940Y-1762099D01*
X387197Y-1746453D01*
X382625Y-1731162D01*
X376326Y-1716582D01*
X368350Y-1702765D01*
X358851Y-1690014D01*
X347929Y-1678432D01*
X335737Y-1668221D01*
X322529Y-1659483D01*
X319684Y-1656689D01*
X318109Y-1652981D01*
X318109Y-1649018D01*
X319684Y-1645310D01*
X322529Y-1642516D01*
X335737Y-1633778D01*
X347929Y-1623568D01*
X358851Y-1611985D01*
X368350Y-1599234D01*
X376326Y-1585417D01*
X382625Y-1570837D01*
X387197Y-1555546D01*
X389940Y-1539900D01*
X390906Y-1524000D01*
X389940Y-1508099D01*
X387197Y-1492453D01*
X382625Y-1477162D01*
X376326Y-1462582D01*
X368350Y-1448765D01*
X358851Y-1436014D01*
X347929Y-1424432D01*
X335737Y-1414221D01*
X322529Y-1405483D01*
X319684Y-1402689D01*
X318109Y-1398981D01*
X318109Y-1395018D01*
X319684Y-1391310D01*
X322529Y-1388516D01*
X335737Y-1379778D01*
X347929Y-1369568D01*
X358851Y-1357985D01*
X368350Y-1345234D01*
X376326Y-1331417D01*
X382625Y-1316837D01*
X387197Y-1301546D01*
X389940Y-1285900D01*
X390906Y-1270000D01*
X389940Y-1254099D01*
X387197Y-1238453D01*
X382625Y-1223162D01*
X376326Y-1208582D01*
X368350Y-1194765D01*
X358851Y-1182014D01*
X347929Y-1170432D01*
X335737Y-1160221D01*
X322529Y-1151483D01*
X319684Y-1148689D01*
X318109Y-1144981D01*
X318109Y-1141018D01*
X319684Y-1137310D01*
X322529Y-1134516D01*
X335737Y-1125778D01*
X347929Y-1115568D01*
X358851Y-1103985D01*
X368350Y-1091234D01*
X376326Y-1077417D01*
X382625Y-1062837D01*
X387197Y-1047546D01*
X389940Y-1031900D01*
X390906Y-1016000D01*
X389940Y-1000099D01*
X387197Y-984453D01*
X382625Y-969162D01*
X376326Y-954582D01*
X368350Y-940765D01*
X358851Y-928014D01*
X347929Y-916432D01*
X335737Y-906221D01*
X322529Y-897483D01*
X319684Y-894689D01*
X318109Y-890981D01*
X318109Y-887018D01*
X319684Y-883310D01*
X322529Y-880516D01*
X335737Y-871778D01*
X347929Y-861568D01*
X358851Y-849985D01*
X368350Y-837234D01*
X376326Y-823417D01*
X382625Y-808837D01*
X387197Y-793546D01*
X389940Y-777900D01*
X390906Y-762000D01*
X389940Y-746099D01*
X387197Y-730453D01*
X382625Y-715162D01*
X376326Y-700582D01*
X368350Y-686765D01*
X358851Y-674014D01*
X347929Y-662432D01*
X335737Y-652221D01*
X322529Y-643483D01*
X319684Y-640689D01*
X318109Y-636981D01*
X318109Y-633018D01*
X319684Y-629310D01*
X322529Y-626516D01*
X335737Y-617778D01*
X347929Y-607568D01*
X358851Y-595985D01*
X368350Y-583234D01*
X376326Y-569417D01*
X382625Y-554837D01*
X387197Y-539546D01*
X389940Y-523900D01*
X390906Y-508000D01*
X389940Y-492099D01*
X387197Y-476453D01*
X382625Y-461162D01*
X376326Y-446582D01*
X368350Y-432765D01*
X358851Y-420014D01*
X347929Y-408432D01*
X337515Y-399643D01*
X334924Y-396443D01*
X333908Y-392480D01*
X334467Y-388416D01*
X336651Y-384911D01*
X340004Y-382574D01*
X354431Y-376326D01*
X368198Y-368350D01*
X381000Y-358851D01*
X392582Y-347929D01*
X402793Y-335737D01*
X411530Y-322427D01*
X418693Y-308203D01*
X424129Y-293268D01*
X427786Y-277774D01*
X429666Y-261975D01*
X429666Y-246024D01*
X427786Y-230225D01*
X424129Y-214731D01*
X418693Y-199796D01*
X411530Y-185572D01*
X402793Y-172262D01*
X392582Y-160070D01*
X381000Y-149148D01*
X368198Y-139649D01*
X354431Y-131673D01*
X339801Y-125374D01*
X324561Y-120802D01*
X308914Y-118059D01*
X292709Y-117094D01*
X215290Y-117094D01*
X199085Y-118059D01*
X183438Y-120802D01*
X168198Y-125374D01*
X153568Y-131673D01*
X139801Y-139649D01*
X127000Y-149148D01*
X115417Y-160070D01*
X105206Y-172262D01*
X96469Y-185572D01*
X89306Y-199796D01*
X83870Y-214731D01*
X80213Y-230225D01*
X78333Y-246024D01*
X78333Y-261975D01*
X80213Y-277774D01*
X83870Y-293268D01*
X89306Y-308203D01*
X96469Y-322427D01*
X105206Y-335737D01*
X115417Y-347929D01*
X127000Y-358851D01*
X139801Y-368350D01*
X153568Y-376326D01*
X167995Y-382574D01*
X171348Y-384911D01*
X173532Y-388416D01*
X174091Y-392480D01*
X173075Y-396443D01*
X170484Y-399643D01*
X160070Y-408432D01*
X149148Y-420014D01*
X139649Y-432765D01*
X131673Y-446582D01*
X125374Y-461162D01*
X120802Y-476453D01*
X118059Y-492099D01*
X117094Y-508000D01*
X118059Y-523900D01*
X120802Y-539546D01*
X125374Y-554837D01*
X131673Y-569417D01*
X139649Y-583234D01*
X149148Y-595985D01*
X160070Y-607568D01*
X172262Y-617778D01*
X185470Y-626516D01*
X188315Y-629310D01*
X189890Y-633018D01*
X189890Y-636981D01*
X188315Y-640689D01*
X185470Y-643483D01*
X172262Y-652221D01*
X160070Y-662432D01*
X149148Y-674014D01*
X139649Y-686765D01*
X131673Y-700582D01*
X125374Y-715162D01*
X120802Y-730453D01*
X118059Y-746099D01*
X117094Y-762000D01*
X118059Y-777900D01*
X120802Y-793546D01*
X125374Y-808837D01*
X131673Y-823417D01*
X139649Y-837234D01*
X149148Y-849985D01*
X160070Y-861568D01*
X172262Y-871778D01*
X185470Y-880516D01*
X188315Y-883310D01*
X189890Y-887018D01*
X189890Y-890981D01*
X188315Y-894689D01*
X185470Y-897483D01*
X172262Y-906221D01*
X160070Y-916432D01*
X149148Y-928014D01*
X139649Y-940765D01*
X131673Y-954582D01*
X125374Y-969162D01*
X120802Y-984453D01*
X118059Y-1000099D01*
X117094Y-1016000D01*
X118059Y-1031900D01*
X120802Y-1047546D01*
X125374Y-1062837D01*
X131673Y-1077417D01*
X139649Y-1091234D01*
X149148Y-1103985D01*
X160070Y-1115568D01*
X172262Y-1125778D01*
X185470Y-1134516D01*
X188315Y-1137310D01*
X189890Y-1141018D01*
X189890Y-1144981D01*
X188315Y-1148689D01*
X185470Y-1151483D01*
X172262Y-1160221D01*
X160070Y-1170432D01*
X149148Y-1182014D01*
X139649Y-1194765D01*
X131673Y-1208582D01*
X125374Y-1223162D01*
X120802Y-1238453D01*
X118059Y-1254099D01*
X117094Y-1270000D01*
X118059Y-1285900D01*
X120802Y-1301546D01*
X125374Y-1316837D01*
X131673Y-1331417D01*
X139649Y-1345234D01*
X149148Y-1357985D01*
X160070Y-1369568D01*
X172262Y-1379778D01*
X185470Y-1388516D01*
X188315Y-1391310D01*
X189890Y-1395018D01*
X189890Y-1398981D01*
X188315Y-1402689D01*
X185470Y-1405483D01*
X172262Y-1414221D01*
X160070Y-1424432D01*
X149148Y-1436014D01*
X139649Y-1448765D01*
X131673Y-1462582D01*
X125374Y-1477162D01*
X120802Y-1492453D01*
X118059Y-1508099D01*
X117094Y-1524000D01*
X118059Y-1539900D01*
X120802Y-1555546D01*
X125374Y-1570837D01*
X131673Y-1585417D01*
X139649Y-1599234D01*
X149148Y-1611985D01*
X160070Y-1623568D01*
X172262Y-1633778D01*
X185470Y-1642516D01*
X188315Y-1645310D01*
X189890Y-1649018D01*
X189890Y-1652981D01*
X188315Y-1656689D01*
X185470Y-1659483D01*
X172262Y-1668221D01*
X160070Y-1678432D01*
X149148Y-1690014D01*
X139649Y-1702765D01*
X131673Y-1716582D01*
X125374Y-1731162D01*
X120802Y-1746453D01*
X118059Y-1762099D01*
X117094Y-1778000D01*
X118059Y-1793900D01*
X120802Y-1809546D01*
X125374Y-1824837D01*
X131673Y-1839417D01*
X139649Y-1853234D01*
X149148Y-1865985D01*
X160070Y-1877568D01*
X172262Y-1887778D01*
X185470Y-1896516D01*
X188315Y-1899310D01*
X189890Y-1903018D01*
X189890Y-1906981D01*
X188315Y-1910689D01*
X185470Y-1913483D01*
X172262Y-1922221D01*
X160070Y-1932432D01*
X149148Y-1944014D01*
X139649Y-1956765D01*
X131673Y-1970582D01*
X125374Y-1985162D01*
X120802Y-2000453D01*
X118059Y-2016099D01*
X117094Y-2032000D01*
X118059Y-2047900D01*
X120802Y-2063546D01*
X125374Y-2078837D01*
X131673Y-2093417D01*
X139649Y-2107234D01*
X149148Y-2119985D01*
X160070Y-2131568D01*
X172262Y-2141778D01*
X185470Y-2150516D01*
X188315Y-2153310D01*
X189890Y-2157018D01*
X189890Y-2160981D01*
X188315Y-2164689D01*
X185470Y-2167483D01*
X172262Y-2176221D01*
X160070Y-2186432D01*
X149148Y-2198014D01*
X139649Y-2210765D01*
X131673Y-2224582D01*
X125374Y-2239162D01*
X120802Y-2254453D01*
X118059Y-2270099D01*
X117094Y-2286000D01*
X118059Y-2301900D01*
X120802Y-2317546D01*
X125374Y-2332837D01*
X131673Y-2347417D01*
X139649Y-2361234D01*
X149148Y-2373985D01*
X160070Y-2385568D01*
X172262Y-2395778D01*
X185470Y-2404516D01*
X188315Y-2407310D01*
X189890Y-2411018D01*
X189890Y-2414981D01*
X188315Y-2418689D01*
X185470Y-2421483D01*
X172262Y-2430221D01*
X160070Y-2440432D01*
X149148Y-2452014D01*
X139649Y-2464765D01*
X131673Y-2478582D01*
X125374Y-2493162D01*
X120802Y-2508453D01*
X118059Y-2524099D01*
X117094Y-2540000D01*
X118059Y-2555900D01*
X120802Y-2571546D01*
X125374Y-2586837D01*
X131673Y-2601417D01*
X139649Y-2615234D01*
X149148Y-2627985D01*
X160070Y-2639568D01*
X172262Y-2649778D01*
X185470Y-2658516D01*
X188315Y-2661310D01*
X189890Y-2665018D01*
X189890Y-2668981D01*
X188315Y-2672689D01*
X185470Y-2675483D01*
X172262Y-2684221D01*
X160070Y-2694432D01*
X149148Y-2706014D01*
X139649Y-2718765D01*
X131673Y-2732582D01*
X125374Y-2747162D01*
X120802Y-2762453D01*
X118059Y-2778099D01*
X117094Y-2794000D01*
X118059Y-2809900D01*
X120802Y-2825546D01*
X125374Y-2840837D01*
X131673Y-2855417D01*
X139649Y-2869234D01*
X149148Y-2881985D01*
X160070Y-2893568D01*
X172262Y-2903778D01*
X185470Y-2912516D01*
X188315Y-2915310D01*
X189890Y-2919018D01*
X189890Y-2922981D01*
X188315Y-2926689D01*
X185470Y-2929483D01*
X172262Y-2938221D01*
X160070Y-2948432D01*
X149148Y-2960014D01*
X139649Y-2972765D01*
X131673Y-2986582D01*
X125374Y-3001162D01*
X120802Y-3016453D01*
X118059Y-3032099D01*
X117094Y-3048000D01*
X118059Y-3063900D01*
X120802Y-3079546D01*
X125374Y-3094837D01*
X131673Y-3109417D01*
X139649Y-3123234D01*
X149148Y-3135985D01*
X160070Y-3147568D01*
X172262Y-3157778D01*
X185470Y-3166516D01*
X188315Y-3169310D01*
X189890Y-3173018D01*
X189890Y-3176981D01*
X188315Y-3180689D01*
X185470Y-3183483D01*
X172262Y-3192221D01*
X160070Y-3202432D01*
X149148Y-3214014D01*
X139649Y-3226765D01*
X131673Y-3240582D01*
X125374Y-3255162D01*
X120802Y-3270453D01*
X118059Y-3286099D01*
X117094Y-3302000D01*
X118059Y-3317900D01*
X120802Y-3333546D01*
X125374Y-3348837D01*
X131673Y-3363417D01*
X139649Y-3377234D01*
X149148Y-3389985D01*
X160426Y-3401974D01*
X162509Y-3405276D01*
X163220Y-3409137D01*
X162356Y-3412947D01*
X160172Y-3416198D01*
X156870Y-3418332D01*
X153060Y-3419094D01*
X143560Y-3419094D01*
X137261Y-3419805D01*
X131775Y-3421735D01*
X126898Y-3424783D01*
X122783Y-3428898D01*
X119735Y-3433775D01*
X117805Y-3439261D01*
X117094Y-3445560D01*
G37*
G36*
X497941Y-3494074D02*
G01*
X573074Y-3494074D01*
X573074Y-3439718D01*
X573836Y-3435807D01*
X576072Y-3432505D01*
X579424Y-3430320D01*
X583336Y-3429558D01*
X588111Y-3430778D01*
X603402Y-3435350D01*
X619099Y-3438093D01*
X635000Y-3439058D01*
X650900Y-3438093D01*
X666597Y-3435350D01*
X681888Y-3430778D01*
X686663Y-3429558D01*
X690575Y-3430320D01*
X693928Y-3432505D01*
X696163Y-3435807D01*
X696925Y-3439718D01*
X696925Y-3494074D01*
X772058Y-3494074D01*
X772058Y-3445408D01*
X771347Y-3439109D01*
X769416Y-3433622D01*
X766368Y-3428746D01*
X762254Y-3424631D01*
X757377Y-3421583D01*
X751890Y-3419652D01*
X745591Y-3418941D01*
X735990Y-3418941D01*
X732028Y-3418128D01*
X728726Y-3415893D01*
X726541Y-3412540D01*
X725830Y-3408578D01*
X726694Y-3404666D01*
X729030Y-3401415D01*
X734669Y-3396030D01*
X744931Y-3383838D01*
X753668Y-3370529D01*
X760831Y-3356254D01*
X766267Y-3341319D01*
X769975Y-3325774D01*
X771804Y-3309975D01*
X771804Y-3294024D01*
X769975Y-3278225D01*
X766267Y-3262680D01*
X760831Y-3247745D01*
X753668Y-3233470D01*
X744931Y-3220161D01*
X734669Y-3207969D01*
X723087Y-3196996D01*
X710285Y-3187496D01*
X703884Y-3183788D01*
X700735Y-3180994D01*
X699008Y-3177133D01*
X699008Y-3172866D01*
X700735Y-3169005D01*
X703884Y-3166211D01*
X710285Y-3162503D01*
X723087Y-3153003D01*
X734669Y-3142030D01*
X744931Y-3129838D01*
X753668Y-3116529D01*
X760831Y-3102254D01*
X766267Y-3087319D01*
X769975Y-3071774D01*
X771804Y-3055975D01*
X771804Y-3040024D01*
X769975Y-3024225D01*
X766267Y-3008680D01*
X760831Y-2993745D01*
X753668Y-2979470D01*
X744931Y-2966161D01*
X734669Y-2953969D01*
X723087Y-2942996D01*
X710285Y-2933496D01*
X703884Y-2929788D01*
X700735Y-2926994D01*
X699008Y-2923133D01*
X699008Y-2918866D01*
X700735Y-2915005D01*
X703884Y-2912211D01*
X710285Y-2908503D01*
X723087Y-2899003D01*
X734669Y-2888030D01*
X744931Y-2875838D01*
X753668Y-2862529D01*
X760831Y-2848254D01*
X766267Y-2833319D01*
X769975Y-2817774D01*
X771804Y-2801975D01*
X771804Y-2786024D01*
X769975Y-2770225D01*
X766267Y-2754680D01*
X760831Y-2739745D01*
X753668Y-2725470D01*
X744931Y-2712161D01*
X734669Y-2699969D01*
X723087Y-2688996D01*
X710285Y-2679496D01*
X703884Y-2675788D01*
X700735Y-2672994D01*
X699008Y-2669133D01*
X699008Y-2664866D01*
X700735Y-2661005D01*
X703884Y-2658211D01*
X710285Y-2654503D01*
X723087Y-2645003D01*
X734669Y-2634030D01*
X744931Y-2621838D01*
X753668Y-2608529D01*
X760831Y-2594254D01*
X766267Y-2579319D01*
X769975Y-2563774D01*
X771804Y-2547975D01*
X771804Y-2532024D01*
X769975Y-2516225D01*
X766267Y-2500680D01*
X760831Y-2485745D01*
X753668Y-2471470D01*
X744931Y-2458161D01*
X734669Y-2445969D01*
X723087Y-2434996D01*
X710285Y-2425496D01*
X703884Y-2421788D01*
X700735Y-2418994D01*
X699008Y-2415133D01*
X699008Y-2410866D01*
X700735Y-2407005D01*
X703884Y-2404211D01*
X710285Y-2400503D01*
X723087Y-2391003D01*
X734669Y-2380030D01*
X744931Y-2367838D01*
X753668Y-2354529D01*
X760831Y-2340254D01*
X766267Y-2325319D01*
X769975Y-2309774D01*
X771804Y-2293975D01*
X771804Y-2278024D01*
X769975Y-2262225D01*
X766267Y-2246680D01*
X760831Y-2231745D01*
X753668Y-2217470D01*
X744931Y-2204161D01*
X734669Y-2191969D01*
X723087Y-2180996D01*
X710285Y-2171496D01*
X703884Y-2167788D01*
X700735Y-2164994D01*
X699008Y-2161133D01*
X699008Y-2156866D01*
X700735Y-2153005D01*
X703884Y-2150211D01*
X710285Y-2146503D01*
X723087Y-2137003D01*
X734669Y-2126030D01*
X744931Y-2113838D01*
X753668Y-2100529D01*
X760831Y-2086254D01*
X766267Y-2071319D01*
X769975Y-2055774D01*
X771804Y-2039975D01*
X771804Y-2024024D01*
X769975Y-2008225D01*
X766267Y-1992680D01*
X760831Y-1977745D01*
X753668Y-1963470D01*
X744931Y-1950161D01*
X734669Y-1937969D01*
X723087Y-1926996D01*
X710285Y-1917496D01*
X703884Y-1913788D01*
X700735Y-1910994D01*
X699008Y-1907133D01*
X699008Y-1902866D01*
X700735Y-1899005D01*
X703884Y-1896211D01*
X710285Y-1892503D01*
X723087Y-1883003D01*
X734669Y-1872030D01*
X744931Y-1859838D01*
X753668Y-1846529D01*
X760831Y-1832254D01*
X766267Y-1817319D01*
X769975Y-1801774D01*
X771804Y-1785975D01*
X771804Y-1770024D01*
X769975Y-1754225D01*
X766267Y-1738680D01*
X760831Y-1723745D01*
X753668Y-1709470D01*
X744931Y-1696161D01*
X734669Y-1683969D01*
X723087Y-1672996D01*
X710285Y-1663496D01*
X703884Y-1659788D01*
X700735Y-1656994D01*
X699008Y-1653133D01*
X699008Y-1648866D01*
X700735Y-1645005D01*
X703884Y-1642211D01*
X710285Y-1638503D01*
X723087Y-1629003D01*
X734669Y-1618030D01*
X744931Y-1605838D01*
X753668Y-1592529D01*
X760831Y-1578254D01*
X766267Y-1563319D01*
X769975Y-1547774D01*
X771804Y-1531975D01*
X771804Y-1516024D01*
X769975Y-1500225D01*
X766267Y-1484680D01*
X760831Y-1469745D01*
X753668Y-1455470D01*
X744931Y-1442161D01*
X734669Y-1429969D01*
X723087Y-1418996D01*
X710285Y-1409496D01*
X703884Y-1405788D01*
X700735Y-1402994D01*
X699008Y-1399133D01*
X699008Y-1394866D01*
X700735Y-1391005D01*
X703884Y-1388211D01*
X710285Y-1384503D01*
X723087Y-1375003D01*
X734669Y-1364030D01*
X744931Y-1351838D01*
X753668Y-1338529D01*
X760831Y-1324254D01*
X766267Y-1309319D01*
X769975Y-1293774D01*
X771804Y-1277975D01*
X771804Y-1262024D01*
X769975Y-1246225D01*
X766267Y-1230680D01*
X760831Y-1215745D01*
X753668Y-1201470D01*
X744931Y-1188161D01*
X734669Y-1175969D01*
X723087Y-1164996D01*
X710285Y-1155496D01*
X703884Y-1151788D01*
X700735Y-1148994D01*
X699008Y-1145133D01*
X699008Y-1140866D01*
X700735Y-1137005D01*
X703884Y-1134211D01*
X710285Y-1130503D01*
X723087Y-1121003D01*
X734669Y-1110030D01*
X744931Y-1097838D01*
X753668Y-1084529D01*
X760831Y-1070254D01*
X766267Y-1055319D01*
X769975Y-1039774D01*
X771804Y-1023975D01*
X771804Y-1008024D01*
X769975Y-992225D01*
X766267Y-976680D01*
X760831Y-961745D01*
X753668Y-947470D01*
X744931Y-934161D01*
X734669Y-921969D01*
X723087Y-910996D01*
X710285Y-901496D01*
X703884Y-897788D01*
X700735Y-894994D01*
X699008Y-891133D01*
X699008Y-886866D01*
X700735Y-883005D01*
X703884Y-880211D01*
X710285Y-876503D01*
X723087Y-867003D01*
X734669Y-856030D01*
X744931Y-843838D01*
X753668Y-830529D01*
X760831Y-816254D01*
X766267Y-801319D01*
X769975Y-785774D01*
X771804Y-769975D01*
X771804Y-754024D01*
X769975Y-738225D01*
X766267Y-722680D01*
X760831Y-707745D01*
X753668Y-693470D01*
X744931Y-680161D01*
X734669Y-667969D01*
X723087Y-656996D01*
X710285Y-647496D01*
X696518Y-639521D01*
X681888Y-633222D01*
X666597Y-628650D01*
X650900Y-625906D01*
X635000Y-624941D01*
X619099Y-625906D01*
X603402Y-628650D01*
X588111Y-633222D01*
X573481Y-639521D01*
X559714Y-647496D01*
X546912Y-656996D01*
X535330Y-667969D01*
X525068Y-680161D01*
X516331Y-693470D01*
X509168Y-707745D01*
X503732Y-722680D01*
X500024Y-738225D01*
X498195Y-754024D01*
X498195Y-769975D01*
X500024Y-785774D01*
X503732Y-801319D01*
X509168Y-816254D01*
X516331Y-830529D01*
X525068Y-843838D01*
X535330Y-856030D01*
X546912Y-867003D01*
X559714Y-876503D01*
X566115Y-880211D01*
X569264Y-883005D01*
X570992Y-886866D01*
X570992Y-891133D01*
X569264Y-894994D01*
X566115Y-897788D01*
X559714Y-901496D01*
X546912Y-910996D01*
X535330Y-921969D01*
X525068Y-934161D01*
X516331Y-947470D01*
X509168Y-961745D01*
X503732Y-976680D01*
X500024Y-992225D01*
X498195Y-1008024D01*
X498195Y-1023975D01*
X500024Y-1039774D01*
X503732Y-1055319D01*
X509168Y-1070254D01*
X516331Y-1084529D01*
X525068Y-1097838D01*
X535330Y-1110030D01*
X546912Y-1121003D01*
X559714Y-1130503D01*
X566115Y-1134211D01*
X569264Y-1137005D01*
X570992Y-1140866D01*
X570992Y-1145133D01*
X569264Y-1148994D01*
X566115Y-1151788D01*
X559714Y-1155496D01*
X546912Y-1164996D01*
X535330Y-1175969D01*
X525068Y-1188161D01*
X516331Y-1201470D01*
X509168Y-1215745D01*
X503732Y-1230680D01*
X500024Y-1246225D01*
X498195Y-1262024D01*
X498195Y-1277975D01*
X500024Y-1293774D01*
X503732Y-1309319D01*
X509168Y-1324254D01*
X516331Y-1338529D01*
X525068Y-1351838D01*
X535330Y-1364030D01*
X546912Y-1375003D01*
X559714Y-1384503D01*
X566115Y-1388211D01*
X569264Y-1391005D01*
X570992Y-1394866D01*
X570992Y-1399133D01*
X569264Y-1402994D01*
X566115Y-1405788D01*
X559714Y-1409496D01*
X546912Y-1418996D01*
X535330Y-1429969D01*
X525068Y-1442161D01*
X516331Y-1455470D01*
X509168Y-1469745D01*
X503732Y-1484680D01*
X500024Y-1500225D01*
X498195Y-1516024D01*
X498195Y-1531975D01*
X500024Y-1547774D01*
X503732Y-1563319D01*
X509168Y-1578254D01*
X516331Y-1592529D01*
X525068Y-1605838D01*
X535330Y-1618030D01*
X546912Y-1629003D01*
X559714Y-1638503D01*
X566115Y-1642211D01*
X569264Y-1645005D01*
X570992Y-1648866D01*
X570992Y-1653133D01*
X569264Y-1656994D01*
X566115Y-1659788D01*
X559714Y-1663496D01*
X546912Y-1672996D01*
X535330Y-1683969D01*
X525068Y-1696161D01*
X516331Y-1709470D01*
X509168Y-1723745D01*
X503732Y-1738680D01*
X500024Y-1754225D01*
X498195Y-1770024D01*
X498195Y-1785975D01*
X500024Y-1801774D01*
X503732Y-1817319D01*
X509168Y-1832254D01*
X516331Y-1846529D01*
X525068Y-1859838D01*
X535330Y-1872030D01*
X546912Y-1883003D01*
X559714Y-1892503D01*
X566115Y-1896211D01*
X569264Y-1899005D01*
X570992Y-1902866D01*
X570992Y-1907133D01*
X569264Y-1910994D01*
X566115Y-1913788D01*
X559714Y-1917496D01*
X546912Y-1926996D01*
X535330Y-1937969D01*
X525068Y-1950161D01*
X516331Y-1963470D01*
X509168Y-1977745D01*
X503732Y-1992680D01*
X500024Y-2008225D01*
X498195Y-2024024D01*
X498195Y-2039975D01*
X500024Y-2055774D01*
X503732Y-2071319D01*
X509168Y-2086254D01*
X516331Y-2100529D01*
X525068Y-2113838D01*
X535330Y-2126030D01*
X546912Y-2137003D01*
X559714Y-2146503D01*
X566115Y-2150211D01*
X569264Y-2153005D01*
X570992Y-2156866D01*
X570992Y-2161133D01*
X569264Y-2164994D01*
X566115Y-2167788D01*
X559714Y-2171496D01*
X546912Y-2180996D01*
X535330Y-2191969D01*
X525068Y-2204161D01*
X516331Y-2217470D01*
X509168Y-2231745D01*
X503732Y-2246680D01*
X500024Y-2262225D01*
X498195Y-2278024D01*
X498195Y-2293975D01*
X500024Y-2309774D01*
X503732Y-2325319D01*
X509168Y-2340254D01*
X516331Y-2354529D01*
X525068Y-2367838D01*
X535330Y-2380030D01*
X546912Y-2391003D01*
X559714Y-2400503D01*
X566115Y-2404211D01*
X569264Y-2407005D01*
X570992Y-2410866D01*
X570992Y-2415133D01*
X569264Y-2418994D01*
X566115Y-2421788D01*
X559714Y-2425496D01*
X546912Y-2434996D01*
X535330Y-2445969D01*
X525068Y-2458161D01*
X516331Y-2471470D01*
X509168Y-2485745D01*
X503732Y-2500680D01*
X500024Y-2516225D01*
X498195Y-2532024D01*
X498195Y-2547975D01*
X500024Y-2563774D01*
X503732Y-2579319D01*
X509168Y-2594254D01*
X516331Y-2608529D01*
X525068Y-2621838D01*
X535330Y-2634030D01*
X546912Y-2645003D01*
X559714Y-2654503D01*
X566115Y-2658211D01*
X569264Y-2661005D01*
X570992Y-2664866D01*
X570992Y-2669133D01*
X569264Y-2672994D01*
X566115Y-2675788D01*
X559714Y-2679496D01*
X546912Y-2688996D01*
X535330Y-2699969D01*
X525068Y-2712161D01*
X516331Y-2725470D01*
X509168Y-2739745D01*
X503732Y-2754680D01*
X500024Y-2770225D01*
X498195Y-2786024D01*
X498195Y-2801975D01*
X500024Y-2817774D01*
X503732Y-2833319D01*
X509168Y-2848254D01*
X516331Y-2862529D01*
X525068Y-2875838D01*
X535330Y-2888030D01*
X546912Y-2899003D01*
X559714Y-2908503D01*
X566115Y-2912211D01*
X569264Y-2915005D01*
X570992Y-2918866D01*
X570992Y-2923133D01*
X569264Y-2926994D01*
X566115Y-2929788D01*
X559714Y-2933496D01*
X546912Y-2942996D01*
X535330Y-2953969D01*
X525068Y-2966161D01*
X516331Y-2979470D01*
X509168Y-2993745D01*
X503732Y-3008680D01*
X500024Y-3024225D01*
X498195Y-3040024D01*
X498195Y-3055975D01*
X500024Y-3071774D01*
X503732Y-3087319D01*
X509168Y-3102254D01*
X516331Y-3116529D01*
X525068Y-3129838D01*
X535330Y-3142030D01*
X546912Y-3153003D01*
X559714Y-3162503D01*
X566115Y-3166211D01*
X569264Y-3169005D01*
X570992Y-3172866D01*
X570992Y-3177133D01*
X569264Y-3180994D01*
X566115Y-3183788D01*
X559714Y-3187496D01*
X546912Y-3196996D01*
X535330Y-3207969D01*
X525068Y-3220161D01*
X516331Y-3233470D01*
X509168Y-3247745D01*
X503732Y-3262680D01*
X500024Y-3278225D01*
X498195Y-3294024D01*
X498195Y-3309975D01*
X500024Y-3325774D01*
X503732Y-3341319D01*
X509168Y-3356254D01*
X516331Y-3370529D01*
X525068Y-3383838D01*
X535330Y-3396030D01*
X540969Y-3401415D01*
X543306Y-3404666D01*
X544169Y-3408578D01*
X543458Y-3412540D01*
X541274Y-3415893D01*
X537972Y-3418128D01*
X534009Y-3418941D01*
X524408Y-3418941D01*
X518109Y-3419652D01*
X512622Y-3421583D01*
X507746Y-3424631D01*
X503631Y-3428746D01*
X500583Y-3433622D01*
X498652Y-3439109D01*
X497941Y-3445408D01*
G37*
G36*
X2578658Y-3289808D02*
G01*
X2616200Y-3289808D01*
X2616200Y-3225800D01*
X2552192Y-3225800D01*
X2552192Y-3263341D01*
X2552903Y-3269640D01*
X2554833Y-3275126D01*
X2557881Y-3280003D01*
X2561996Y-3284118D01*
X2566873Y-3287166D01*
X2572359Y-3289096D01*
G37*
G36*
X2717800Y-3289808D02*
G01*
X2755341Y-3289808D01*
X2761640Y-3289096D01*
X2767126Y-3287166D01*
X2772003Y-3284118D01*
X2776118Y-3280003D01*
X2779166Y-3275126D01*
X2781096Y-3269640D01*
X2781808Y-3263341D01*
X2781808Y-3225800D01*
X2717800Y-3225800D01*
G37*
G36*
X2552192Y-3124200D02*
G01*
X2616200Y-3124200D01*
X2616200Y-3060192D01*
X2578658Y-3060192D01*
X2572359Y-3060903D01*
X2566873Y-3062833D01*
X2561996Y-3065881D01*
X2557881Y-3069996D01*
X2554833Y-3074873D01*
X2552903Y-3080359D01*
X2552192Y-3086658D01*
G37*
G36*
X2717800Y-3124200D02*
G01*
X2781808Y-3124200D01*
X2781808Y-3086658D01*
X2781096Y-3080359D01*
X2779166Y-3074873D01*
X2776118Y-3069996D01*
X2772003Y-3065881D01*
X2767126Y-3062833D01*
X2761640Y-3060903D01*
X2755341Y-3060192D01*
X2717800Y-3060192D01*
G37*

%LPD*%
D10*
X1778000Y-508000D02*
G01*
X1866900Y-508000D01*
X2044700Y-330200D01*
X2781300Y-330200D01*
X2946400Y-495300D01*
X2946400Y-2705100D01*
X2730500Y-2921000D01*
X2667000Y-2921000D01*
D11*
X2159000Y-762000D02*
G01*
X2374900Y-762000D01*
X2501900Y-889000D01*
X2501900Y-2501900D01*
X2667000Y-2667000D01*
D10*
X1778000Y-1524000D02*
G01*
X1968500Y-1714500D01*
X1968500Y-2133600D01*
X2120900Y-2286000D01*
X2159000Y-2286000D01*
D12*
G01*
X254000Y-254000D03*
D13*
G01*
X254000Y-508000D03*
G01*
X254000Y-762000D03*
G01*
X254000Y-1016000D03*
G01*
X254000Y-1270000D03*
G01*
X254000Y-1524000D03*
G01*
X254000Y-1778000D03*
G01*
X254000Y-2032000D03*
G01*
X254000Y-2286000D03*
G01*
X254000Y-2540000D03*
G01*
X254000Y-2794000D03*
G01*
X254000Y-3048000D03*
G01*
X254000Y-3302000D03*
D14*
G01*
X254000Y-3556000D03*
D13*
G01*
X1778000Y-3556000D03*
G01*
X1778000Y-3302000D03*
G01*
X1778000Y-3048000D03*
G01*
X1778000Y-2794000D03*
G01*
X1778000Y-2540000D03*
G01*
X1778000Y-2286000D03*
G01*
X1778000Y-2032000D03*
G01*
X1778000Y-1778000D03*
G01*
X1778000Y-1524000D03*
G01*
X1778000Y-1270000D03*
G01*
X1778000Y-1016000D03*
G01*
X1778000Y-762000D03*
G01*
X1778000Y-508000D03*
G01*
X1778000Y-254000D03*
D15*
G01*
X2667000Y-3429000D03*
D16*
G01*
X2667000Y-3175000D03*
D15*
G01*
X2667000Y-2921000D03*
D17*
G01*
X2667000Y-2667000D03*
D18*
G01*
X635000Y-762000D03*
G01*
X635000Y-1016000D03*
G01*
X635000Y-1270000D03*
G01*
X635000Y-1524000D03*
G01*
X635000Y-1778000D03*
G01*
X635000Y-2032000D03*
G01*
X635000Y-2286000D03*
G01*
X635000Y-2540000D03*
G01*
X635000Y-2794000D03*
G01*
X635000Y-3048000D03*
G01*
X635000Y-3302000D03*
D19*
G01*
X635000Y-3556000D03*
D18*
G01*
X2159000Y-3556000D03*
G01*
X2159000Y-3302000D03*
G01*
X2159000Y-3048000D03*
G01*
X2159000Y-2794000D03*
G01*
X2159000Y-2540000D03*
G01*
X2159000Y-2286000D03*
G01*
X2159000Y-2032000D03*
G01*
X2159000Y-1778000D03*
G01*
X2159000Y-1524000D03*
G01*
X2159000Y-1270000D03*
G01*
X2159000Y-1016000D03*
D20*
G01*
X2159000Y-762000D03*
M02*
